<svg id="Layer_1" data-name="Layer 1" xmlns="http://www.w3.org/2000/svg" viewBox="0 0 1152 225"><defs><style>.cls-1{fill:#010101;}.cls-2{fill:#96bf47;}.cls-3{fill:#5f8f3e;}.cls-4{fill:#fff;}.cls-5{fill:#231f20;}</style></defs><title>Artboard 6</title><path class="cls-1" d="M627.89,155.23l7.42-39.86c.93-4.87,1.62-9.14,2.09-13.14h3.17l-1.16,8h.15c3.32-5,8-8.53,12.9-8.53,7,0,9.66,5.81,9.66,11.92,0,12.51-8.57,26.91-20.39,26.91-3.63,0-6-1.29-7.42-1.29h-.15l-2.94,16Zm7-20.2a11.68,11.68,0,0,0,7.18,2.09c9.81,0,16.61-13.9,16.61-23.41,0-4.4-1.7-9.35-7.18-9.35-5.25,0-12.13,6.72-14.21,17.92Z"/><path class="cls-1" d="M687.3,140.23a64,64,0,0,1,.93-10h-.15c-4.25,8-9,10.28-13.83,10.28-5.64,0-9-4.86-9-11.51,0-12.67,9-27.46,23.41-27.46a24.41,24.41,0,0,1,7.49,1l-3.94,20.38a83.48,83.48,0,0,0-1.62,17.28Zm4.94-35.32a13.37,13.37,0,0,0-4.48-.54c-10.66,0-19,11.9-19.08,23.56-.08,4.87,1.31,9.19,6.33,9.19,6,0,12.82-9,14.6-18.62Z"/><path class="cls-1" d="M698.5,140.23l4.71-25.41A105.06,105.06,0,0,0,705,102.23h3c-.23,3-.54,5-1,9h.15c2.24-5,5.95-9.34,10.58-9.34.46,0,1-.15,1.39-.15l-.7,3.44a5,5,0,0,0-1.24-.13c-4.87,0-10.27,7.78-11.82,15.89l-3.55,19.29Z"/><path class="cls-1" d="M734.34,94.1l-1.62,8.12h8.73l-.62,3H732.1l-4.09,22a33.9,33.9,0,0,0-.77,6.37c0,2.16,1,3.46,3.32,3.46a8.29,8.29,0,0,0,2.7-.32l.23,2.7a12.84,12.84,0,0,1-3.63.54c-4.4,0-6.1-2.94-6.1-6a29.92,29.92,0,0,1,.85-6.71l4.17-22h-5.33l.54-3h5.41l1.24-6.65Z"/><path class="cls-1" d="M741,140.23l4.94-26.65c.85-4.4,1.31-8.35,1.62-11.35h3.17l-1.08,8h.15c3.24-5,7.88-8.57,13-8.57,3.63,0,8.27,2.2,8.27,9.23a34.71,34.71,0,0,1-.7,6.13l-4.25,23.2h-3.32L767.09,117a32.54,32.54,0,0,0,.54-5.64c0-3.86-1.54-6.76-6.1-6.76-4.94,0-12,6.59-13.6,15.56l-3.63,20.11Z"/><path class="cls-1" d="M797.84,137.19A18.42,18.42,0,0,1,787.72,140c-8.65,0-11.66-6.8-11.66-13.91,0-10.66,7.49-24.64,18.08-24.64,6.1,0,8.65,3.94,8.65,8.11,0,9.42-10.81,12-22.94,12a25.53,25.53,0,0,0,.31,9.27c1.31,4.17,4.17,6.26,8.11,6.26a16.15,16.15,0,0,0,8.57-2.47Zm1.6-27.58c0-3.4-2.38-5.25-5.86-5.25-5.72,0-10.78,6.18-13.1,14.21,9.66.08,19-1.54,19-8.88Z"/><path class="cls-1" d="M805,140.23l4.71-25.41a105,105,0,0,0,1.78-12.59h3c-.23,3-.54,5-1,9h.15c2.24-5,5.95-9.34,10.58-9.34.46,0,1-.15,1.39-.15l-.7,3.44a5,5,0,0,0-1.24-.13c-4.87,0-10.27,7.78-11.82,15.89l-3.55,19.29Z"/><path class="cls-1" d="M824.49,135A11.34,11.34,0,0,0,831,137c4.87,0,8.19-3.48,8.19-7.72,0-3.71-1.54-5.95-5-8.19-3.71-2.39-5.72-5.72-5.72-9.19,0-5.79,4.71-10.51,11.28-10.51a11.1,11.1,0,0,1,6.1,1.62l-1.24,2.86a10.58,10.58,0,0,0-5.25-1.54c-4.48,0-7.49,3.17-7.49,7,0,3.48,2,5.41,5,7.49,3.55,2.39,5.72,5.79,5.72,9.58,0,7.49-5.48,11.59-11.9,11.59a13,13,0,0,1-7.49-2.24Z"/><path class="cls-2" d="M335.09,96.69l-.22,0A1.88,1.88,0,0,1,333.29,95c0-.81-.52-19.86,10.65-24.2a7.68,7.68,0,0,1,7.61.73c2.68,1.9,4.64,5.65,5.81,11.14a47.84,47.84,0,0,1,1,7.37,1.24,1.24,0,0,1-1.48,1.29,1.88,1.88,0,0,1-1.59-1.71c-.13-3.45-1.33-13-5.2-15.75a4.62,4.62,0,0,0-4.59-.24c-9.58,3.72-9.12,21.6-9.12,21.79A1.22,1.22,0,0,1,335.09,96.69Z"/><path class="cls-2" d="M358.95,77.94,315.73,91.32a7,7,0,0,0-2.29,1,4.92,4.92,0,0,0-.57,2.12L306.19,146l50.15,9.4L360.2,77.9A3.22,3.22,0,0,0,358.95,77.94Z"/><path class="cls-3" d="M373.92,84.6a1,1,0,0,0-.3-.54,1.22,1.22,0,0,0-.47-.17l-7.08-.53-5.21-5.18a1.54,1.54,0,0,0-.66-.29l-3.86,77.52,27.17-5.88Z"/><path class="cls-4" d="M341.1,121a16.81,16.81,0,0,0-2.61-2.75,26.15,26.15,0,0,0-2.87-2.1,18.6,18.6,0,0,1-1.78-1.24,8.42,8.42,0,0,1-1.23-1.19,4.21,4.21,0,0,1-.71-1.19,3.11,3.11,0,0,1-.2-1.25,4.05,4.05,0,0,1,.38-1.57,3.65,3.65,0,0,1,.94-1.21,4.59,4.59,0,0,1,1.45-.82,6.92,6.92,0,0,1,1.92-.37,13.75,13.75,0,0,1,2.22.05,15,15,0,0,1,2,.35,15.94,15.94,0,0,1,1.75.54c.53.2,1,.4,1.4.6l3.34-10a9.86,9.86,0,0,0-1.8-.68,16,16,0,0,0-2.32-.46,21,21,0,0,0-2.74-.16,24.3,24.3,0,0,0-3,.21,19.33,19.33,0,0,0-6.15,1.83,15.71,15.71,0,0,0-4.52,3.36,14.85,14.85,0,0,0-2.89,4.57,16.91,16.91,0,0,0-1.18,5.61,11.49,11.49,0,0,0,.33,3.37,11,11,0,0,0,1.2,2.88,13.63,13.63,0,0,0,1.9,2.48,19.35,19.35,0,0,0,2.43,2.13,18.43,18.43,0,0,1,1.81,1.49,8.33,8.33,0,0,1,1.21,1.4,4.63,4.63,0,0,1,.81,2.9,3.85,3.85,0,0,1-.33,1.45,3,3,0,0,1-.85,1.11,3.23,3.23,0,0,1-1.33.63,4.85,4.85,0,0,1-1.78,0,10.72,10.72,0,0,1-2.25-.61,16.41,16.41,0,0,1-2.1-1,20.69,20.69,0,0,1-1.81-1.14c-.54-.38-1-.75-1.4-1.08l-2.29,7.6a9.4,9.4,0,0,0,1.43,1.44,14.91,14.91,0,0,0,2,1.36,19,19,0,0,0,2.43,1.18,20.07,20.07,0,0,0,2.8.9h.2a17.15,17.15,0,0,0,6,.32,12.16,12.16,0,0,0,5.24-1.94,11.46,11.46,0,0,0,3.82-4.38,16.51,16.51,0,0,0,1.65-6.79,12.19,12.19,0,0,0-.59-4.4A12.54,12.54,0,0,0,341.1,121Z"/><path class="cls-2" d="M324.55,94.06l-.22,0a1.51,1.51,0,0,1-1.28-1.71c.12-.81,3-19.86,14.92-24.2,3-1.09,5.53-.85,7.48.73,2.35,1.9,3.64,5.65,3.85,11.14a46.83,46.83,0,0,1-.33,7.37,1.51,1.51,0,0,1-3-.41c.48-3.45,1-13-2.43-15.75-1.09-.88-2.57-1-4.55-.24-10.23,3.71-12.93,21.6-13,21.79A1.51,1.51,0,0,1,324.55,94.06Z"/><path class="cls-5" d="M415.19,117.58c-2.71-1.47-4.1-2.71-4.1-4.41,0-2.17,1.94-3.56,5-3.56a16,16,0,0,1,6.66,1.47l2.48-7.59c-1.7-1-4.88-1.78-9-1.78-9.37,0-15.8,5.34-15.8,12.85,0,4.26,3,7.51,7,9.83,3.25,1.86,4.41,3.17,4.41,5.11s-1.63,3.64-4.65,3.64a19.56,19.56,0,0,1-8.75-2.32l-2.63,7.59c2,1.39,6.12,2.56,10.53,2.63,9.6.08,16.49-4.72,16.49-13.24C422.86,123.24,419.37,120,415.19,117.58Z"/><path class="cls-5" d="M453.44,101.63c-4.72,0-8.44,2.25-11.3,5.65l-.16-.08,4.1-21.45H435.4L425,140.35h10.69l3.56-18.66c1.39-7,5-11.38,8.44-11.38,2.4,0,3.33,1.63,3.33,3.95a24.42,24.42,0,0,1-.46,4.72l-4,21.37h10.69l4.18-22.07a39.92,39.92,0,0,0,.77-7C462.19,105.27,459,101.63,453.44,101.63Z"/><path class="cls-5" d="M486.35,101.63c-12.85,0-21.37,11.61-21.37,24.54,0,8.28,5.11,14.94,14.71,14.94,12.62,0,21.14-11.3,21.14-24.54C500.83,108.91,496.34,101.63,486.35,101.63Zm-5.27,31.28c-3.64,0-5.19-3.1-5.19-7,0-6.12,3.17-16.11,9-16.11,3.79,0,5,3.25,5,6.43C489.91,122.85,486.74,132.92,481.08,132.92Z"/><path class="cls-5" d="M528.16,101.63c-4.26,0-8.44,2.32-11.3,6.35h-.15l.62-5.73h-9.45c-.46,3.87-1.32,9.76-2.17,14.17l-7.43,39.1H509l2.94-15.8h.23a13,13,0,0,0,6.27,1.39c12.54,0,20.75-12.85,20.75-25.86C539.16,108.06,536,101.63,528.16,101.63Zm-10.22,31.44a6.62,6.62,0,0,1-4.41-1.55l1.78-10c1.24-6.66,4.72-11.07,8.44-11.07,3.25,0,4.26,3,4.26,5.88C528,123.24,523.9,133.07,517.94,133.07Z"/><path class="cls-5" d="M554.41,86.3a6.1,6.1,0,0,0-6.12,6.19c0,3.17,2,5.34,5,5.34h.16a6,6,0,0,0,6.27-6.19A5.08,5.08,0,0,0,554.41,86.3Z"/><polygon class="cls-5" points="539.47 140.35 550.15 140.35 557.43 102.49 546.67 102.49 539.47 140.35"/><path class="cls-5" d="M584.61,102.41h-7.43l.39-1.78c.62-3.64,2.79-6.89,6.35-6.89a10.46,10.46,0,0,1,3.41.54l2.09-8.36A15,15,0,0,0,583.6,85a15.86,15.86,0,0,0-10.45,3.56c-3.64,3.1-5.34,7.59-6.19,12.08l-.31,1.78h-5l-1.55,8.05h5l-5.65,29.89h10.69l5.65-29.89h7.36Z"/><path class="cls-5" d="M610.31,102.49l-6.5,17c-1.55,4.1-2.32,6.5-3.17,9.06h-.15c-.16-2.48-.46-5.19-.93-9l-1.7-17H586.62L593,137.25a2.27,2.27,0,0,1-.23,1.78,18.28,18.28,0,0,1-5.81,6.43,23.12,23.12,0,0,1-6,3l2.94,9.06a24.41,24.41,0,0,0,10.45-5.81c4.88-4.57,9.37-11.61,14-21.22l13.09-28Z"/></svg>