<?xml version="1.0" encoding="utf-8"?>
<!-- Generator: Adobe Illustrator 21.1.0, SVG Export Plug-In . SVG Version: 6.00 Build 0)  -->
<svg version="1.1" id="Layer_1" xmlns="http://www.w3.org/2000/svg" xmlns:xlink="http://www.w3.org/1999/xlink" x="0px" y="0px"
	 viewBox="0 0 366 290" style="enable-background:new 0 0 366 290;" xml:space="preserve">
<style type="text/css">
	.st0{fill:#FF0066;stroke:#000000;stroke-width:3;stroke-miterlimit:10;}
	.st1{font-family:'LustScript';}
	.st2{font-size:33.9164px;}
	.st3{fill:#B7248E;stroke:#000000;stroke-width:3;stroke-miterlimit:10;}
	.st4{stroke:#000000;stroke-width:3;stroke-miterlimit:10;}
</style>
<defs>
	
	<script  language="JavaScript" xlink:href="menu.js"></script>
</defs>
<ellipse class="st0" cx="183" cy="145" rx="181.5" ry="143.5"/>
<g>
	<text transform="matrix(0.912 -0.4103 0.4103 0.912 64.6236 90.8698)" class="st1 st2">Patricia</text>
	<text transform="matrix(0.912 -0.4103 0.4103 0.912 81.3209 127.984)" class="st1 st2">Parker</text>
</g>
<g id="XMLID_1_" onmouseover="icon">
	<path class="st3" d="M209.8,111c-1.2,4.9-1.5,14-1.5,14c-4.8-1.7-13.4,0.6-13.4,0.6c1.6,1.1,13.6,2.2,13.6,2.2
		c-3,4.3-2.9,11.1-2.9,11.1c3.6-4.2,5-9.9,5-9.9c2.8,4.4,8.6,5.5,8.6,5.5c-3.8-6.1-5.8-7.3-5.8-7.3c6.5,0.5,10.1-4.9,10.1-4.9
		c-2.9,0-11.2,2.1-11.2,2.1C213.1,121.3,209.8,111,209.8,111z"/>
	<path class="st4" d="M271.7,158.4c-8.3-1.8-12.9-9.7-15.4-17.9c10.7,0,10.5-7,10.3-9.2c-2.6,4.9-4.2,7.3-11.5,4.6
		c-0.8-3.5-1.2-6.8-1.5-9.4c26.4-31.8-15.1-64.8-15.1-64.8c12.9,49.8-69.2,37.5-93.1,73.4C110.5,187.4,170,238.9,170,238.9
		c-29.5-62.1,13.9-87.9,13.9-87.9c-27.9,55.3-2.1,103.9,44.3,103.9c32,0,31.1-28.7,31.1-28.7c-10.9,19.9-50.2,16.4-50.2-21.1
		c0-31.1,7.8-45.7,17.9-55.7c-10.3,19.1-17.6,45.6-8.5,67.1c13.7-7,24.5-2,30.9-3.5c9.4-2.2,8.5-9.9,7.5-14.5
		c-1.4-6.4,2.3-4.4,4.7-7.2c3.3-3.9-1.6-7-1.6-7c4.6-1.6,4.5-5.2,4.5-5.2c-2.3-0.6-9.2-7.5,0.5-12
		C274.5,162.7,271.7,158.4,271.7,158.4z M217.1,128.1c0,0,17.8,5.2,9.7,14.7c-7.4,8.6-15.2-10-15.2-10s1.1,14.7-7,14.9
		s-10.5-10,0-17.8c0,0-15.3,3.8-14.4-6.7c0.7-8.3,11.2-5.8,17.3,0.4c0,0-9.7-15.7,1.6-17.9c7.2-1.4,12.1,8.6,5.8,16.5
		c0,0,11.8-10.7,15.2-2.5C234.1,129.8,217.1,128.1,217.1,128.1z"/>
</g>
</svg>
