<?xml version="1.0" encoding="utf-8"?>
<!-- Generator: Adobe Illustrator 21.1.0, SVG Export Plug-In . SVG Version: 6.00 Build 0)  -->
<svg version="1.1" id="Layer_1" xmlns="http://www.w3.org/2000/svg" xmlns:xlink="http://www.w3.org/1999/xlink" x="0px" y="0px"
	 viewBox="0 0 561.9 502.2" style="enable-background:new 0 0 561.9 502.2;" xml:space="preserve">
<style type="text/css">
	.st0{fill:#330099;stroke:#FF33CC;stroke-width:10;}
	.st1{fill:#FF33CC;stroke:#330066;stroke-width:5;}
	.st2{fill:#FF33CC;stroke:#330066;stroke-miterlimit:10;}
	.st3{fill:#6611D3;stroke:#A59ACA;stroke-width:2;}
	.st4{fill:#6611D3;stroke:#DDD0E6;stroke-width:2;}
	.st5{enable-background:new    ;}
	.st6{fill:#FFFFFF;}
</style>
<g>
	<path class="st0" d="M205.1,234.2c15,15.3,29.1,12.4,27.1,12.4c-5.2,1.6-16.2,11.3-25,18.9C143.9,320.2,6.2,498.3,15.8,284.8
		c1.5-32.3,4-34.3-3.1-59.4c-9.8-34.4-22.3-90.6,47.1-87C117.4,144.4,173.4,201.8,205.1,234.2z"/>
	<path class="st0" d="M191.2,287.4c36.3-27.7,42-29.3,41.8-27.3c1.1,6.3,1.1-4.4,1.1,29.2c0,41,124.8,93.1,104.4,166.3
		c-28.3,30.9-38.5,63.1-103.9,22.9c-27.6-16.9-33.5-8.5-59.3-4.6c-35.4,5.3-92.7,10.4-80.1-58C108.7,359.1,162.5,309.3,191.2,287.4z
		"/>
	<path class="st0" d="M251.8,288.8c3.6-24.3-5.6-37.9-4.1-36.5c7.2,3.5,19.9,8.2,33.2,8.2c59.8,0.2,165.1-27.6,191.2,21
		c14.1,35.5,24.3,68.2-46.6,97.6c-29.9,12.4-26.5,22.1-38.5,45.3c-16.5,31.8-46,81.2-94,30.8C255.9,412.2,238.9,364.4,251.8,288.8z"
		/>
	<path class="st0" d="M276.5,256c-24.1-10.9-39.3-16.7-37.2-17.5C274.5,211.7,286.7,63.4,364.5,47c21.7-3.5,73.3,12.9,67.8,89.3
		c-2.3,32.2,7.9,33.6,23.2,54.8c21,29,51.9,77.5-14.6,97.8C388.4,302.1,318.7,275.1,276.5,256z"/>
	<path class="st0" d="M210.9,221.4c19,11.6,28,21.7,27.5,19.7c0.5-6.9-3.7-18.6,3.1-33.1c37-79.2,145.7-243.8-23.2-184.3
		c-30.5,10.7-32.5,11.8-58.5,10.5c-35.8-1.7-93.3-1.1-74,65.7C104.6,154,172,197.6,210.9,221.4z"/>
</g>
<g>
	<g>
		<path class="st1" d="M282.4,225.8c15,15.3,29.1,12.4,27.1,12.4c-5.2,1.6-16.2,11.3-25,18.9c-63.3,54.7-200.9,232.8-191.3,19.3
			c1.5-32.3,4-34.3-3.1-59.4c-9.8-34.4-22.3-90.6,47.1-87C194.7,136,250.6,193.3,282.4,225.8z"/>
		<path class="st1" d="M268.5,279c36.3-27.7,42-29.3,41.8-27.3c1.1,6.3,1.1-4.4,1.1,29.2c0,41,124.8,93.1,104.4,166.3
			c-28.3,30.9-38.5,63.1-103.9,22.9c-27.6-16.9-33.5-8.5-59.3-4.6c-35.4,5.3-92.7,10.4-80.1-58C186,350.7,239.8,300.9,268.5,279z"/>
		<path class="st1" d="M329,280.4c3.6-24.3-5.6-37.9-4.1-36.5c7.2,3.5,19.9,8.2,33.2,8.2c59.8,0.2,165.1-27.6,191.2,21
			c14.2,35.5,24.3,68.2-46.6,97.6c-29.9,12.4-26.5,22.1-38.5,45.3c-16.5,31.8-46,81.2-94,30.8C333.2,403.8,316.1,355.9,329,280.4z"
			/>
		<path class="st1" d="M353.7,247.5c-24.1-10.9-39.3-16.7-37.2-17.5c35.2-26.8,47.4-175.1,125.2-191.4c21.7-3.5,73.3,12.9,67.8,89.3
			c-2.3,32.2,7.9,33.6,23.2,54.8c21,29,51.9,77.5-14.6,97.8C465.6,293.7,396,266.7,353.7,247.5z"/>
		<path class="st1" d="M288.2,212.9c19,11.6,28,21.7,27.5,19.7c0.5-6.9-3.7-18.6,3.1-33.1c37-79.2,145.7-243.8-23.2-184.3
			c-30.5,10.7-32.5,11.8-58.5,10.5c-35.8-1.7-93.3-1.1-74,65.7C181.9,145.5,249.2,189.2,288.2,212.9z"/>
	</g>
	<g>
		<path class="st2" d="M330.8,245c72,67.7,186.9,120.8,186.9,120.8c-65.8-17.4-137.9-62.1-190.4-117.6
			C254.2,170.7,200.2,81.8,182,53.1C211.2,91.1,270.4,161.7,330.8,245z"/>
		<path class="st2" d="M293.5,243.3c-46.4-25.9-157.7,61.6-161,113.9C169.7,259.1,293.5,243.3,293.5,243.3z"/>
		<path class="st2" d="M318.3,238.7c2.7-53.1,148.7-99.4,194.8-74.4C410.2,143.7,318.3,238.7,318.3,238.7z"/>
		<path class="st2" d="M309.1,239.9c-58.6,43.9-172.7-3.8-204-45.9C189.7,256.1,309.1,239.9,309.1,239.9z"/>
		<path class="st2" d="M319.4,236.9c-51.4,84.4-84.7,220.4-84.7,220.4c3.4-68,37.3-160.3,80.8-223.1
			c60.8-87.5,136.6-158.8,160.9-182.4C445.2,88.1,388.4,160.6,319.4,236.9z"/>
		<path class="st2" d="M311.4,215.3c1,9,10.2,13.9,11.3,22.8c-1,11.4-22.7,22.2-22.7,34.5c-0.7,94.6,41.2,213.4,41.2,213.4
			c-23.2-54-52.5-145.7-47.7-217.3c0.8-11.4,20.4-22.5,21.9-32.8c-1.6-7.8-11.3-11.4-12.6-19c-15.3-90.1,1.3-172.1,11.7-201.5
			C303.9,57,302.7,138.3,311.4,215.3z"/>
		<path class="st2" d="M319.4,236.9c-98.1,11.6-225.7,69.2-225.7,69.2c55.7-39.2,149.2-69.5,225.5-73.9
			c106.4-6.1,198.4-1.2,231.9,3.3C503.2,233.3,422,244.2,319.4,236.9z"/>
		<path class="st2" d="M322.7,240.7c30.5,39.6,99.9,145.8,106.8,218.8c12.8-51.8-59.9-158.4-102.9-221.5c-60-88-24.9-55.5-110.6-193
			C261.6,138.2,286.2,204.2,322.7,240.7z"/>
	</g>
</g>
<g>
	<path class="st3" d="M302.9,223.3c-3-7.7-1.6-15.4,3-17.2c4.6-1.8,10.8,3,13.7,10.7c3,7.7,1.6,15.4-3,17.2
		C312,235.8,305.9,231,302.9,223.3z"/>
	<path class="st3" d="M332.3,235.1c-7.8,2.6-15.4,0.8-17-3.9c-1.5-4.7,3.6-10.6,11.4-13.1c7.8-2.6,15.4-0.8,17,3.9
		C345.3,226.6,340.2,232.5,332.3,235.1z"/>
	<path class="st3" d="M319.8,250.8c-1.7,8.1-7,13.8-11.8,12.8c-4.8-1-7.4-8.4-5.7-16.4c1.7-8.1,7-13.8,11.8-12.8
		C318.9,235.3,321.5,242.7,319.8,250.8z"/>
	
		<ellipse transform="matrix(0.9982 -6.079696e-02 6.079696e-02 0.9982 -12.7921 19.5872)" class="st4" cx="315.5" cy="220" rx="9" ry="14.9"/>
	<path class="st4" d="M331,240.6c-8.2,0.1-15-3.9-15-8.8c0-4.9,6.6-9,14.9-9.1c8.3-0.1,15,3.9,15,8.8
		C345.9,236.5,339.2,240.5,331,240.6z"/>
	<path class="st4" d="M314.3,251.8c-4.1,7.2-10.8,11-15.1,8.6c-4.3-2.4-4.5-10.2-0.5-17.4c4.1-7.2,10.8-11,15.1-8.6
		C318.1,236.8,318.3,244.6,314.3,251.8z"/>
	<path class="st4" d="M304.6,221.6c7,4.4,10.4,11.4,7.8,15.6c-2.7,4.2-10.5,4-17.4-0.5c-7-4.4-10.4-11.4-7.8-15.6
		C289.9,217,297.6,217.2,304.6,221.6z"/>
	<path class="st4" d="M312.2,253.6c-3.3-7.6-2.2-15.3,2.3-17.3c4.5-2,10.9,2.6,14.1,10.2c3.3,7.6,2.2,15.3-2.3,17.3
		C321.8,265.7,315.5,261.2,312.2,253.6z"/>
	<path class="st3" d="M301.5,224.9c8,2.1,13.4,7.7,12.1,12.5c-1.3,4.8-8.8,6.9-16.7,4.8c-8-2.1-13.4-7.7-12.1-12.5
		C286,225,293.5,222.8,301.5,224.9z"/>
	<path class="st3" d="M318.4,253.1c-5.4-6.2-6.7-13.9-3-17.1c3.7-3.2,11.1-0.8,16.5,5.4c5.4,6.2,6.7,13.9,3,17.2
		C331.2,261.8,323.8,259.4,318.4,253.1z"/>
</g>
<g>
	<g class="st5">
		<path class="st6" d="M185.3,139.1c-1.7-6.7,5.5-11.5,9.7-13.6l0,0c-6.7,3-14.6,1-21.2,4c-3.3,1.5-5.1,3.7-4,6.2
			c1,2.2,3.2,2.1,4.9,1.4c1.4-0.6,2.7-1.9,3.2-3.7c7.4-0.3,6.4,8.4,0.2,11.2c-4,1.8-9.1,0.9-10.9-3.2c-2-4.4,0.6-9.6,6.4-12.2
			c6.8-3.1,15.4-1.3,21.7-4.1c1.2-0.5,1.4-1.4,1.2-1.9c-0.3-0.7-1.6-1.1-2.7,0.4c-2.1-1.5-1.1-3.9,0.8-4.8c1.4-0.6,3.3-0.6,4.1,1.2
			c0.8,1.8-1,3.6-1.8,4.3c0.8-0.5,1.7-1.1,2.7-1.6c7.7-3.5,14-3.3,16.6,2.5c4.2,9.4-6.6,18.7-15.5,21.3l-0.1-0.4
			c7.9-2.9,6.1-12.2,3.5-18c-1.5-3.2-3.9-5-6.5-3.8c-2.1,1-3.1,3.2-1.7,8.6l4.4,17.4c3.2,12.9-10.3,21.3-17.5,24.5
			c-5.4,2.5-13.3,2.2-16.1-4c-2.5-5.5,1.4-11.3,6.8-13.8c5.1-2.3,11.9-2.1,14,2.6c1.4,3.1-0.1,7-4.4,8.9c-3,1.4-6.6,0.4-7-2.9
			c2.5-1.2,3.7-4,2.6-6.5c-1.1-2.4-4-2.3-5.9-1.4c-3.8,1.7-6.3,7-4.1,12c2.4,5.3,8.6,6.9,14,4.4c6.7-3,9.4-9.1,7.1-17.8L185.3,139.1
			z"/>
		<path class="st6" d="M247.7,128c1,4.4,2.9,9.8,5.6,9.6l-0.1,0.2c-1.1,0.8-2.4,1.5-3.6,2c-4.5,2-9.3,2.2-10.3-4.4l-1.3-8.1l-0.2,0
			c1.9,13.2-0.8,18.2-5.6,20.3c-5.6,2.5-9.5-0.9-11.5-5.2c-3.3-7.4,0.2-20,10-24.4c5.3-2.4,11.3-0.3,13.4-5.8L247.7,128z
			 M231.3,140.6c0.9,1.9,2.1,3.5,3.5,2.9c3.3-1.5,3.5-10.4,1.8-17.9l-0.7-3.1c-0.9-4.2-2-5.5-4.6-4.3
			C226.9,120.1,227.9,132.9,231.3,140.6z"/>
		<path class="st6" d="M259,105.7l3.7-1.7l0.1,0.5l-3.7,1.7l3.7,15.3c1.1,4.4,2.9,9.8,5.6,9.6l-0.1,0.2c-0.7,0.4-1.6,0.9-2.5,1.4
			c-4.1,1.9-9.9,2.9-11.5-3.7l-4.7-18.5l-2.4,1.1l-0.1-0.5c7.7-3.5,10.8-7.6,9.1-14.8l0.5-0.2L259,105.7z"/>
		<path class="st6" d="M282.3,124.6l-0.1,0.2c-0.9,0.7-1.9,1.3-3,1.8c-3.7,1.7-8.1,1.8-9.6-4.5l-3.6-16.1c-0.3-1-1.4-1.3-2.7-0.2
			l-0.2-0.1c1.5-1.6,4.8-4.3,7.4-5.5c3-1.4,4.7-0.9,5.4,2.6l1.8,11.9l0.2-0.1c-1.8-13.6,0.3-18.4,5.8-20.9c4.8-2.1,8-0.5,9.3,2.4
			c1.4,3.1,0.1,7.5-4.6,9.6c-2.4,1.1-5.3,0.8-6.2-2.1c2-0.9,3.2-3.4,2.2-5.6c-0.7-1.5-1.9-1.9-3.1-1.3c-3.3,1.5-4.1,8.7-2.7,17.8
			C279,118.1,280.1,124.6,282.3,124.6z"/>
		<path class="st6" d="M294.8,86.8c0.4-2-0.6-5.8-3-6.9c0.4-2.6,2.2-5.1,4.4-6c2-0.9,4.9-0.9,6.1,1.7c1.6,3.6-1.7,9-7.3,11.3
			L294.8,86.8z M294.7,93c-0.3-1-1.4-1.3-2.7-0.2l-0.2-0.1c1.5-1.6,4.8-4.3,7.4-5.5c3-1.4,4.6-0.9,5.4,2.6l2.8,11.7
			c0.8,3.6,2.2,9.9,4.5,9.8l-0.1,0.2c-1.2,0.8-2.5,1.6-3.7,2.1c-4.1,1.8-8,1.7-9.4-4.6L294.7,93z"/>
		<path class="st6" d="M323,76.5c3.8-1.7,10.8-3.5,12.9,1.2c1.2,2.7-0.1,6.3-3.7,8c-2.4,1.1-5.2,0.8-6.1-2.2c2-1.5,2.3-3.5,1.7-5
			c-0.7-1.6-2.6-2.5-5-1.4c-5.3,2.4-4.1,10.9-2.3,14.8c2.5,5.6,7.1,6.7,11.3,4.8c3.2-1.4,5.6-3.9,6.8-7l0.4,0
			c-1.3,7.3-6.2,12.8-11.6,15.2c-5.9,2.7-12.4,1.6-15.4-5C308.2,91.7,312.8,81.1,323,76.5z"/>
		<path class="st6" d="M339.3,66.8c0.4-2-0.6-5.8-3-6.9c0.4-2.6,2.2-5.1,4.4-6c2-0.9,4.9-0.9,6.1,1.7c1.6,3.6-1.7,9-7.3,11.3
			L339.3,66.8z M339.2,73c-0.3-1-1.4-1.3-2.7-0.2l-0.2-0.1c1.5-1.6,4.8-4.3,7.4-5.5c3-1.4,4.6-0.9,5.4,2.6l2.8,11.7
			c0.8,3.6,2.2,9.9,4.5,9.8l-0.1,0.2c-1.2,0.8-2.5,1.6-3.7,2.1c-4.1,1.8-8,1.7-9.4-4.6L339.2,73z"/>
		<path class="st6" d="M384.1,66.7c1,4.4,2.9,9.8,5.6,9.6l-0.1,0.2c-1.1,0.8-2.4,1.5-3.6,2c-4.5,2-9.3,2.2-10.3-4.4l-1.3-8.1l-0.2,0
			c1.9,13.2-0.8,18.2-5.6,20.3c-5.6,2.5-9.5-0.9-11.5-5.2c-3.3-7.4,0.2-20,10-24.4c5.3-2.4,11.3-0.3,13.4-5.8L384.1,66.7z
			 M367.7,79.2c0.9,1.9,2.1,3.5,3.5,2.9c3.3-1.5,3.5-10.4,1.8-17.9l-0.7-3.1c-0.9-4.2-2-5.5-4.6-4.3
			C363.3,58.8,364.3,71.5,367.7,79.2z"/>
	</g>
	<g class="st5">
		<path class="st6" d="M210.6,195.2c-1.7-6.7,5.5-11.5,9.7-13.6l0,0c-6.7,3-14.6,1-21.2,4c-3.3,1.5-5.1,3.7-4,6.2
			c1,2.2,3.2,2.1,4.9,1.4c1.4-0.6,2.7-1.9,3.2-3.7c7.4-0.3,6.4,8.4,0.2,11.2c-4,1.8-9.1,0.9-10.9-3.2c-2-4.4,0.6-9.6,6.4-12.2
			c6.8-3.1,15.4-1.3,21.7-4.1c1.2-0.5,1.4-1.4,1.2-1.9c-0.3-0.7-1.6-1.1-2.7,0.4c-2.1-1.5-1.1-3.9,0.8-4.8c1.4-0.6,3.3-0.6,4.1,1.2
			c0.8,1.8-1,3.6-1.8,4.3c0.8-0.5,1.7-1.1,2.7-1.6c7.7-3.5,14-3.3,16.6,2.5c4.2,9.4-6.6,18.7-15.5,21.3l-0.1-0.4
			c7.9-2.9,6.1-12.2,3.5-18c-1.5-3.2-3.9-5-6.5-3.8c-2.1,1-3.1,3.2-1.7,8.6l4.4,17.4c3.2,12.9-10.3,21.3-17.5,24.5
			c-5.4,2.5-13.3,2.2-16.1-4c-2.5-5.5,1.4-11.3,6.8-13.8c5.1-2.3,11.9-2.1,14,2.6c1.4,3.1-0.1,7-4.4,8.9c-3,1.4-6.6,0.4-7-2.9
			c2.5-1.2,3.7-4,2.6-6.5c-1.1-2.4-4-2.3-5.9-1.4c-3.8,1.7-6.3,7-4.1,12c2.4,5.3,8.6,6.9,14,4.4c6.7-3,9.4-9.1,7.1-17.8L210.6,195.2
			z"/>
		<path class="st6" d="M272.9,184.2c1,4.4,2.9,9.8,5.6,9.6l-0.1,0.2c-1.1,0.8-2.4,1.5-3.6,2c-4.5,2-9.3,2.2-10.3-4.4l-1.3-8.1
			l-0.2,0c1.9,13.2-0.8,18.2-5.6,20.3c-5.6,2.5-9.5-0.9-11.5-5.2c-3.3-7.4,0.2-20,10-24.4c5.3-2.4,11.3-0.3,13.4-5.8L272.9,184.2z
			 M256.6,196.7c0.9,1.9,2.1,3.5,3.5,2.9c3.3-1.5,3.5-10.4,1.8-17.9l-0.7-3.1c-0.9-4.2-2-5.5-4.6-4.3
			C252.2,176.3,253.1,189,256.6,196.7z"/>
		<path class="st6" d="M292,187.7l-0.1,0.2c-0.9,0.7-1.9,1.3-3,1.8c-3.7,1.7-8.1,1.7-9.6-4.5l-3.6-16.1c-0.3-1-1.4-1.3-2.7-0.2
			l-0.2-0.1c1.5-1.6,4.8-4.3,7.4-5.5c3-1.4,4.7-0.9,5.4,2.6l1.8,11.9l0.2,0c-1.8-13.6,0.3-18.4,5.8-20.9c4.8-2.1,8-0.5,9.3,2.4
			c1.4,3.1,0.1,7.5-4.6,9.6c-2.4,1.1-5.3,0.8-6.2-2.1c2-0.9,3.2-3.4,2.2-5.6c-0.7-1.5-1.9-1.9-3.1-1.3c-3.3,1.5-4.1,8.7-2.7,17.8
			C288.8,181.2,289.9,187.7,292,187.7z"/>
		<path class="st6" d="M317.2,161.7c3.1-2.9,6.7-7.8,4.8-12.1c-0.5-1.2-1.2-1.6-2.1-1.2c-2.8,1.3-4.2,8.1-3,16.2
			c0.5,3.6,1.7,10.2,3.9,10.1l-0.1,0.2c-1.6,1-3,1.8-4.3,2.4c-4.2,1.9-6.8,1.1-8.3-5.1l-7-29.1c-0.3-1-1.4-1.3-2.7-0.2l-0.2-0.1
			c1.5-1.6,4.8-4.3,7.4-5.5c3-1.4,4.7-0.9,5.4,2.6l5.2,24.9l0.2,0c-1.9-14,2.5-18.9,7.1-21c4.3-1.9,7.3-0.8,8.4,1.6
			c2.5,5.7-9.1,12.4-14.1,16c8.4-4.9,12-4.4,14.5-1.9c4.8,4.9,7.3,5.9,10,5.6l-0.1,0.2c-1.8,1.2-3.9,2.5-6,3.5
			c-4.4,2-9.1,2.5-13.1-2.2C320.2,163.4,318.9,161.1,317.2,161.7L317.2,161.7z"/>
		<path class="st6" d="M352,135.1c-0.8-1.8-2.7-2.5-4.5-1.6c-4.1,1.9-4.5,8.8-2.7,13.7c1.9,5.1,5.9,8.5,11.8,5.9
			c2.5-1.1,5.4-3.3,6.7-7l0.4,0c-1.2,6.4-5.3,12.4-11.5,15.2c-6.5,2.9-12.7,1.2-15.6-5c-3.6-8,1-18.7,11.1-23.3
			c4.2-1.9,10.7-3.7,12.6,0.6c1.6,3.5-1,10.1-15.5,12.9l0-0.2C352.3,143.3,353.5,138.4,352,135.1z"/>
		<path class="st6" d="M380.7,147.8l-0.1,0.2c-0.9,0.7-1.9,1.3-3,1.8c-3.7,1.7-8.1,1.7-9.6-4.5l-3.6-16.1c-0.3-1-1.4-1.3-2.7-0.2
			l-0.2-0.1c1.5-1.6,4.8-4.3,7.4-5.5c3-1.4,4.7-0.9,5.4,2.6l1.8,11.9l0.2,0c-1.8-13.6,0.3-18.4,5.8-20.9c4.8-2.1,8-0.5,9.3,2.4
			c1.4,3.1,0.1,7.5-4.6,9.6c-2.4,1.1-5.3,0.8-6.2-2.1c2-0.9,3.2-3.4,2.2-5.6c-0.7-1.5-1.9-1.9-3.1-1.3c-3.3,1.5-4.1,8.7-2.7,17.8
			C377.4,141.3,378.6,147.8,380.7,147.8z"/>
	</g>
</g>
</svg>
