<?xml version="1.0" encoding="iso-8859-1"?>
<!-- Generator: Adobe Illustrator 21.1.0, SVG Export Plug-In . SVG Version: 6.00 Build 0)  -->
<svg version="1.1" id="Layer_1" xmlns="http://www.w3.org/2000/svg" xmlns:xlink="http://www.w3.org/1999/xlink" x="0px" y="0px"
	 viewBox="0 0 561.925 502.239" style="enable-background:new 0 0 561.925 502.239;" xml:space="preserve">
<pattern  y="502.239" width="334.213" height="190.18" patternUnits="userSpaceOnUse" id="Bugaboo" viewBox="125.734 -303.99 334.213 190.18" style="overflow:visible;">
	<g>
		<rect x="125.734" y="-303.99" style="fill:none;" width="334.213" height="190.18"/>
		<g>
			<rect x="125.734" y="-303.99" style="fill:none;" width="334.213" height="190.18"/>
			<g>
				<path style="fill:#00BAC6;" d="M438.308-341.881c-1.043-2.906-4.255-4.424-7.168-3.379c-0.674,0.242-16.579,8.967-32.584,16.604
					c-0.451-1.045-1.022-2.029-1.719-2.904c0,0,46.422-49.042,47.572-50.407c0.963-1.143,1.424-2.594,1.299-4.084
					c-0.127-1.496-0.826-2.844-1.969-3.811c-1.146-0.965-2.596-1.426-4.088-1.301c-1.49,0.127-2.845,0.828-3.811,1.969
					c-1.142,1.359-42.258,54.731-42.258,54.731c-1.178-0.736-2.475-1.293-3.854-1.621c0,0,1.088-30.917,1.049-32.466
					c-0.039-1.496-0.66-2.887-1.746-3.918c-1.082-1.031-2.505-1.574-4.001-1.539c-0.112,0.008-0.222,0.01-0.331,0.02
					c-2.953,0.248-5.203,2.768-5.127,5.727c0.041,1.535,4.531,32.114,4.531,32.114c-1.125,0.236-2.19,0.613-3.18,1.123
					c0,0-25.19-44.38-26.408-46.149c-1.14-1.65-3.09-2.57-5.09-2.398c-0.967,0.082-1.902,0.418-2.705,0.973
					c-1.23,0.852-2.061,2.129-2.327,3.602c-0.271,1.473,0.051,2.961,0.899,4.193c1.221,1.762,33.455,41.181,33.455,41.181
					c-0.425,0.344-0.822,0.723-1.201,1.115c-10.191-10.768-25.463-26.878-26.309-27.591c-2.363-1.992-5.902-1.695-7.896,0.666
					c-1.991,2.359-1.691,5.9,0.669,7.894c0.849,0.713,19.423,13.143,31.755,21.377c-0.125,0.209-0.26,0.416-0.375,0.633
					c0,0-45.473-18.229-47.217-18.785c-0.709-0.229-1.443-0.312-2.181-0.248c-2.263,0.191-4.174,1.709-4.864,3.873
					c-0.456,1.424-0.331,2.943,0.352,4.271c0.686,1.332,1.849,2.316,3.273,2.773c1.742,0.559,49.343,11.994,49.343,11.994
					c-0.165,1.02-0.224,2.074-0.134,3.15c0.025,0.293,0.073,0.58,0.117,0.865c0,0-37.516,6.635-39.398,7.17
					c-2.969,0.844-4.699,3.947-3.855,6.92c0.732,2.573,3.193,4.28,5.855,4.055c0.357-0.03,0.717-0.094,1.065-0.193
					c1.883-0.535,37.314-14.633,37.314-14.633c0.67,1.48,1.607,2.811,2.752,3.924c0,0-44.095,46.308-45.478,47.945
					c-0.966,1.145-1.427,2.596-1.301,4.086c0.127,1.493,0.825,2.845,1.969,3.809c1.146,0.965,2.596,1.429,4.086,1.303
					c1.491-0.127,2.845-0.828,3.809-1.972c1.388-1.641,38.943-53.564,38.943-53.564c0.539,0.348,1.109,0.645,1.693,0.908
					c-7.186,15.739-19.527,42.794-19.765,43.488c-1.005,2.923,0.556,6.118,3.476,7.122c2.922,1.005,6.115-0.554,7.12-3.479
					c0.237-0.689,7.27-29.586,11.356-46.395c0.889,0.221,1.805,0.379,2.749,0.398c0,0-1.11,31.085-0.95,32.976
					c0.26,3.079,2.976,5.372,6.057,5.11c3.076-0.261,5.369-2.978,5.108-6.056c-0.161-1.9-6.515-32.491-6.515-32.491
					c1.117-0.307,2.164-0.764,3.135-1.338c0,0,26.371,46.34,27.595,48.125c1.136,1.661,3.093,2.587,5.101,2.417
					c0.958-0.081,1.887-0.414,2.686-0.961c2.548-1.747,3.204-5.241,1.455-7.79c-1.224-1.787-34.818-43.273-34.818-43.273
					c1.429-1.281,2.566-2.867,3.311-4.654c0,0,45.028,11.795,46.576,12.084c0.5,0.092,1.008,0.117,1.51,0.074
					c2.499-0.211,4.568-2.08,5.028-4.549c0.277-1.471-0.037-2.961-0.881-4.199c-0.846-1.232-2.121-2.064-3.593-2.34
					c-1.553-0.293-47.678-6.424-47.678-6.424c-0.008-0.213-0.006-0.424-0.025-0.639c-0.047-0.561-0.145-1.102-0.262-1.639
					c17.107-4.527,34.934-8.16,35.613-8.402C437.835-335.76,439.352-338.971,438.308-341.881z M395.997-324.368
					c0.431,5.086-3.358,9.576-8.445,10.008c-5.089,0.432-9.58-3.359-10.01-8.445c-0.432-5.09,3.357-9.58,8.446-10.012
					C391.075-333.248,395.565-329.459,395.997-324.368z"/>
				<path style="fill:#FFD400;" d="M382.863-332.897c-2.299,3.973-0.945,9.076,3.032,11.383c0.921,0.533,24.681,9.59,48.692,20.451
					c-0.755,1.515-1.322,3.105-1.65,4.738c0,0-87.744-5.725-90.397-5.725c-2.225,0-4.314,0.867-5.888,2.439
					c-1.575,1.575-2.44,3.664-2.44,5.887c0.003,2.227,0.866,4.317,2.441,5.893c1.572,1.571,3.666,2.438,5.889,2.438
					c2.639-0.004,90.219-4.457,90.219-4.457c0.289,2.045,0.9,4.052,1.85,5.933c0,0-36.162,28.398-37.884,29.929
					c-1.663,1.476-2.646,3.515-2.777,5.734c-0.134,2.22,0.612,4.358,2.088,6.021c0.114,0.125,0.224,0.246,0.339,0.362
					c3.113,3.112,8.131,3.255,11.42,0.331c1.703-1.519,32.135-35.928,32.135-35.928c1.347,1.051,2.797,1.899,4.326,2.535
					c0,0-26.27,71.152-27.111,74.232c-0.783,2.877,0.041,5.972,2.151,8.082c1.021,1.02,2.298,1.76,3.699,2.141
					c2.147,0.583,4.393,0.298,6.321-0.808c1.934-1.106,3.316-2.897,3.902-5.044c0.834-3.075,14.711-77.477,14.711-77.477
					c0.799,0.156,1.609,0.243,2.42,0.296c-2.463,21.899-6.127,54.69-6.127,56.334c0.001,4.593,3.733,8.331,8.325,8.331
					s8.327-3.736,8.327-8.328c-0.002-1.647-3.688-34.66-6.154-56.562c0.359-0.06,0.723-0.104,1.078-0.181
					c0,0,22.88,69.127,23.919,71.642c0.422,1.025,1.029,1.941,1.807,2.717c2.387,2.386,5.943,3.101,9.062,1.812
					c2.057-0.847,3.662-2.443,4.516-4.495c0.857-2.056,0.859-4.318,0.014-6.376c-1.035-2.517-33.672-67.547-33.672-67.547
					c1.318-0.791,2.572-1.732,3.707-2.867c0.311-0.31,0.588-0.64,0.871-0.964c0,0,43.496,36.258,45.908,37.882
					c3.805,2.565,8.992,1.555,11.559-2.253c2.221-3.298,1.799-7.729-1.01-10.537c-0.377-0.376-0.793-0.724-1.24-1.024
					c-2.412-1.624-52.389-28.361-52.389-28.361c1.043-2.183,1.654-4.52,1.82-6.885c0,0,78.478,5.7,81.664,5.703
					c2.225,0,4.316-0.868,5.887-2.439c1.576-1.575,2.444-3.664,2.441-5.888c-0.002-2.227-0.865-4.318-2.435-5.89
					c-1.574-1.571-3.668-2.438-5.891-2.438c-3.193-0.003-81.783,7.105-81.783,7.105c-0.121-0.944-0.33-1.876-0.592-2.796
					c24.767-6.922,67.33-18.836,68.346-19.23c4.283-1.662,6.418-6.496,4.76-10.775c-1.658-4.281-6.49-6.414-10.777-4.754
					c-1.01,0.391-40.576,20.1-63.584,31.569c-0.604-1.222-1.305-2.41-2.186-3.503c0,0,36.375-28.533,38.369-30.529
					c3.248-3.246,3.25-8.529,0-11.777c-3.244-3.246-8.527-3.244-11.775,0.002c-2.004,2.006-30.664,38.543-30.664,38.543
					c-1.42-0.975-2.941-1.727-4.523-2.277c0,0,22.625-56.171,23.479-59.273c0.799-2.883-0.025-5.992-2.145-8.111
					c-1.01-1.01-2.277-1.746-3.666-2.131c-4.428-1.219-9.023,1.385-10.244,5.814c-0.855,3.104-11.043,62.825-11.043,62.825
					c-2.825-0.393-5.718-0.166-8.46,0.701c0,0-29.764-62.452-30.918-64.489c-0.373-0.656-0.832-1.258-1.361-1.787
					c-2.635-2.635-6.743-3.195-9.99-1.35c-1.934,1.094-3.326,2.881-3.924,5.023c-0.59,2.143-0.312,4.389,0.787,6.326
					c1.154,2.041,38.402,60.315,38.402,60.315c-0.235,0.211-0.479,0.414-0.704,0.639c-0.591,0.592-1.112,1.223-1.608,1.869
					c-21.541-15.092-41.356-31.213-42.283-31.752C390.271-338.225,385.167-336.869,382.863-332.897z M441.914-302.268
					c5.365-5.365,14.1-5.365,19.464,0c5.369,5.369,5.367,14.103,0.002,19.467c-5.368,5.368-14.1,5.368-19.469,0
					C436.547-288.165,436.546-296.899,441.914-302.268z"/>
				<path style="fill:#A6CE39;" d="M562.319-387.65c-2.891-1.988-6.861-1.258-8.855,1.637c-0.461,0.67-16.506,29.857-26.207,47.518
					c-1.109-0.665-2.289-1.192-3.514-1.539c0,0,6.928-32.676,7.086-34.697c0.131-1.695-0.406-3.34-1.512-4.631
					c-1.107-1.295-2.648-2.078-4.344-2.209c-1.695-0.131-3.342,0.404-4.635,1.512c-1.289,1.104-2.074,2.648-2.209,4.344
					c-0.152,2.012,0.688,35.163,0.688,35.163c-1.576,0.101-3.141,0.447-4.631,1.06c0,0-19.506-29.247-20.57-30.649
					c-1.027-1.355-2.523-2.227-4.207-2.457c-1.686-0.232-3.359,0.209-4.713,1.236c-0.102,0.078-0.201,0.154-0.297,0.236
					c-2.555,2.188-2.963,6.004-0.928,8.686c1.057,1.387,25.482,26.62,25.482,26.62c-0.881,0.965-1.613,2.021-2.19,3.148
					c0,0-52.678-24.239-54.977-25.062c-2.146-0.768-4.554-0.322-6.287,1.16c-0.838,0.719-1.479,1.65-1.852,2.693
					c-0.572,1.603-0.486,3.332,0.24,4.866c0.73,1.54,2.015,2.699,3.614,3.274c2.294,0.819,58.185,15.801,58.185,15.801
					c-0.166,0.6-0.279,1.212-0.369,1.828c-16.545-3.175-41.322-7.908-42.576-8.006c-3.501-0.271-6.571,2.352-6.843,5.852
					c-0.272,3.501,2.354,6.569,5.854,6.841c1.254,0.097,26.639-0.76,43.477-1.339c0.025,0.275,0.037,0.553,0.076,0.83
					c0,0-28.271,5.02-30.25,5.664c-0.807,0.263-1.539,0.67-2.178,1.216c-1.961,1.68-2.715,4.348-1.918,6.802
					c0.523,1.617,1.647,2.936,3.158,3.709c1.518,0.775,3.24,0.91,4.859,0.388c1.98-0.641,27.705-13.34,27.705-13.34
					c0.525,1.05,1.168,2.062,1.965,2.993c0.219,0.256,0.455,0.485,0.684,0.721c0,0-30.211,31.007-31.594,32.751
					c-2.18,2.748-1.717,6.763,1.035,8.945c2.381,1.885,5.783,1.829,8.09-0.147c0.309-0.267,0.6-0.561,0.853-0.883
					c1.381-1.744,24.725-38.253,24.725-38.253c1.6,0.921,3.344,1.527,5.137,1.793c0,0-7.258,37.165-7.447,39.594
					c-0.133,1.697,0.404,3.342,1.51,4.631c1.107,1.295,2.648,2.08,4.344,2.209c1.697,0.131,3.342-0.401,4.633-1.509
					c1.291-1.104,2.076-2.648,2.209-4.344c0.19-2.434-2.308-40.442-2.308-40.442c0.728-0.038,1.449-0.141,2.168-0.286
					c3.809,19.289,10.367,52.436,10.607,53.235c1.016,3.364,4.572,5.276,7.934,4.267c3.361-1.011,5.273-4.566,4.262-7.932
					c-0.238-0.795-12.918-32.121-20.299-50.338c0.967-0.387,1.916-0.853,2.801-1.459c0,0,13.416,22.253,14.816,23.892
					c2.283,2.667,6.309,2.982,8.979,0.697c2.666-2.281,2.977-6.308,0.695-8.977c-1.41-1.646-21.381-18.492-21.381-18.492
					c0.826-1.025,1.49-2.141,2.002-3.313c0,0,38.08,19.126,40.393,19.963c2.149,0.777,4.568,0.335,6.309-1.153
					c0.83-0.711,1.467-1.635,1.84-2.671c1.191-3.302-0.52-6.959-3.824-8.152c-2.314-0.836-43.836-10.693-43.836-10.693
					c0.469-2.13,0.467-4.348-0.033-6.489c0,0,34.953-12.33,36.574-13.091c0.521-0.245,1.01-0.559,1.443-0.933
					c2.164-1.852,2.834-4.949,1.621-7.533c-0.719-1.538-2-2.707-3.598-3.287c-1.598-0.576-3.326-0.498-4.867,0.223
					c-1.627,0.762-33.838,19.041-33.838,19.041c-0.144-0.19-0.287-0.387-0.445-0.574c-0.416-0.484-0.865-0.919-1.328-1.335
					c12.777-15.527,33.975-41.288,34.439-41.962C565.942-381.689,565.21-385.66,562.319-387.65z M527.741-332.839
					c3.771,4.407,3.254,11.064-1.152,14.835c-4.41,3.774-11.066,3.258-14.838-1.149c-3.775-4.41-3.258-11.067,1.152-14.842
					C517.311-337.767,523.968-337.249,527.741-332.839z"/>
				<path style="fill:#ED1C24;" d="M478.118-252.622c-2.082-1.064-4.643-0.24-5.711,1.844c-0.244,0.483-8.33,21.151-13.217,33.655
					c-0.79-0.343-1.616-0.59-2.455-0.714c0,0,1.761-22.186,1.69-23.535c-0.059-1.132-0.557-2.173-1.397-2.93
					c-0.843-0.76-1.929-1.145-3.061-1.085c-1.131,0.06-2.173,0.555-2.931,1.397c-0.758,0.841-1.143,1.93-1.085,3.062
					c0.072,1.342,3.486,23.172,3.486,23.172c-1.032,0.204-2.038,0.567-2.97,1.101c0,0-15.408-17.642-16.232-18.478
					c-0.796-0.806-1.859-1.252-2.992-1.259c-1.134-0.009-2.201,0.427-3.008,1.221c-0.059,0.062-0.119,0.121-0.175,0.185
					c-1.499,1.665-1.439,4.221,0.136,5.817c0.818,0.826,19.131,15.392,19.131,15.392c-0.498,0.714-0.891,1.474-1.174,2.27
					c0,0-36.896-11.474-38.485-11.819c-1.483-0.321-3.036,0.18-4.054,1.31c-0.491,0.546-0.834,1.216-0.992,1.938
					c-0.238,1.109-0.033,2.244,0.58,3.196c0.615,0.953,1.564,1.608,2.67,1.851c1.586,0.343,39.805,5.424,39.805,5.424
					c-0.057,0.409-0.08,0.824-0.085,1.239c-11.206-0.672-27.985-1.663-28.821-1.619c-2.337,0.123-4.141,2.119-4.018,4.456
					c0.123,2.336,2.123,4.139,4.458,4.016c0.838-0.045,17.534-2.8,28.61-4.634c0.041,0.18,0.072,0.362,0.121,0.542
					c0,0-18.246,5.754-19.498,6.35c-0.51,0.244-0.958,0.576-1.334,0.992c-1.15,1.278-1.418,3.105-0.681,4.659
					c0.487,1.023,1.342,1.798,2.407,2.179c1.069,0.381,2.22,0.321,3.244-0.163c1.254-0.595,17.154-11.203,17.154-11.203
					c0.438,0.648,0.949,1.263,1.557,1.809c0.166,0.15,0.342,0.281,0.514,0.417c0,0-17.287,23.092-18.051,24.363
					c-1.203,2.003-0.551,4.616,1.455,5.82c1.736,1.041,3.978,0.71,5.332-0.795c0.182-0.202,0.348-0.422,0.488-0.656
					c0.763-1.272,13.038-27.405,13.038-27.405c1.137,0.47,2.342,0.721,3.548,0.742c0,0-1.591,25.181-1.507,26.801
					c0.059,1.133,0.557,2.173,1.397,2.93c0.843,0.76,1.929,1.146,3.06,1.085c1.133-0.06,2.173-0.553,2.931-1.396
					c0.758-0.841,1.145-1.929,1.086-3.06c-0.084-1.625-5.012-26.523-5.012-26.523c0.477-0.088,0.944-0.219,1.407-0.376
					c4.181,12.416,11.37,33.751,11.599,34.259c0.961,2.135,3.475,3.092,5.609,2.135c2.133-0.957,3.09-3.472,2.131-5.607
					c-0.227-0.505-11.305-20.108-17.75-31.509c0.605-0.339,1.191-0.729,1.723-1.205c0,0,10.783,13.546,11.85,14.508
					c1.738,1.565,4.426,1.427,5.992-0.313c1.565-1.737,1.424-4.424-0.314-5.991c-1.072-0.967-15.721-10.374-15.721-10.374
					c0.457-0.749,0.801-1.542,1.037-2.362c0,0,26.809,9.354,28.408,9.707c1.488,0.328,3.049-0.173,4.07-1.306
					c0.486-0.542,0.828-1.207,0.984-1.923c0.504-2.284-0.943-4.553-3.228-5.058c-1.604-0.352-29.885-3.286-29.885-3.286
					c0.125-1.446-0.066-2.912-0.582-4.283c0,0,22.031-11.16,23.037-11.802c0.324-0.207,0.619-0.457,0.873-0.742
					c1.27-1.41,1.445-3.514,0.422-5.116c-0.607-0.955-1.557-1.616-2.66-1.863c-1.107-0.242-2.242-0.042-3.197,0.569
					c-1.01,0.643-20.715,15.496-20.715,15.496c-0.113-0.113-0.223-0.232-0.344-0.341c-0.316-0.284-0.652-0.532-0.993-0.767
					c7.103-11.362,18.888-30.21,19.138-30.695C481.026-248.995,480.2-251.557,478.118-252.622z M459.997-213.426
					c2.873,2.586,3.103,7.027,0.518,9.9c-2.589,2.874-7.031,3.105-9.903,0.52c-2.874-2.589-3.107-7.031-0.518-9.905
					C452.682-215.785,457.123-216.015,459.997-213.426z"/>
			</g>
			<g>
				<path style="fill:#FFD400;" d="M215.757-427.987c-2.299,3.973-0.945,9.076,3.032,11.383c0.921,0.533,24.681,9.59,48.692,20.451
					c-0.755,1.515-1.322,3.104-1.65,4.738c0,0-87.744-5.725-90.396-5.725c-2.225,0-4.314,0.867-5.887,2.44
					c-1.576,1.575-2.441,3.664-2.441,5.887c0.003,2.227,0.867,4.317,2.441,5.893c1.572,1.571,3.666,2.438,5.889,2.438
					c2.639-0.004,90.219-4.457,90.219-4.457c0.289,2.045,0.9,4.052,1.85,5.933c0,0-36.162,28.397-37.884,29.929
					c-1.663,1.476-2.646,3.515-2.777,5.734c-0.134,2.22,0.612,4.358,2.088,6.02c0.114,0.125,0.224,0.246,0.339,0.362
					c3.113,3.112,8.131,3.255,11.42,0.331c1.703-1.519,32.135-35.928,32.135-35.928c1.347,1.051,2.797,1.899,4.326,2.535
					c0,0-26.271,71.152-27.111,74.232c-0.783,2.877,0.041,5.972,2.151,8.082c1.021,1.02,2.298,1.76,3.699,2.141
					c2.147,0.583,4.394,0.298,6.321-0.808c1.934-1.107,3.316-2.898,3.902-5.044c0.834-3.075,14.711-77.476,14.711-77.476
					c0.799,0.156,1.609,0.243,2.42,0.296c-2.463,21.898-6.127,54.689-6.127,56.334c0.001,4.593,3.733,8.331,8.325,8.331
					s8.327-3.736,8.327-8.328c-0.002-1.647-3.688-34.66-6.154-56.562c0.359-0.06,0.723-0.104,1.078-0.181
					c0,0,22.88,69.127,23.919,71.642c0.422,1.024,1.029,1.94,1.807,2.717c2.387,2.386,5.943,3.101,9.062,1.812
					c2.057-0.847,3.662-2.443,4.516-4.495c0.858-2.056,0.859-4.318,0.014-6.376c-1.035-2.517-33.672-67.547-33.672-67.547
					c1.318-0.791,2.572-1.732,3.707-2.867c0.31-0.309,0.588-0.64,0.871-0.964c0,0,43.496,36.258,45.908,37.882
					c3.805,2.565,8.992,1.555,11.559-2.253c2.221-3.298,1.799-7.729-1.01-10.537c-0.377-0.376-0.793-0.724-1.24-1.024
					c-2.412-1.624-52.389-28.361-52.389-28.361c1.043-2.183,1.654-4.52,1.82-6.885c0,0,78.478,5.7,81.664,5.703
					c2.225,0,4.316-0.868,5.887-2.439c1.576-1.575,2.443-3.664,2.441-5.888c-0.002-2.227-0.865-4.318-2.436-5.89
					c-1.574-1.571-3.668-2.438-5.891-2.438c-3.193-0.003-81.783,7.105-81.783,7.105c-0.121-0.944-0.33-1.876-0.592-2.796
					c24.768-6.922,67.33-18.836,68.346-19.231c4.283-1.662,6.418-6.496,4.76-10.775c-1.658-4.281-6.49-6.414-10.777-4.754
					c-1.01,0.391-40.576,20.1-63.584,31.569c-0.604-1.222-1.305-2.41-2.186-3.503c0,0,36.375-28.533,38.369-30.529
					c3.248-3.246,3.25-8.529,0-11.777c-3.244-3.246-8.527-3.244-11.775,0.002c-2.004,2.006-30.664,38.543-30.664,38.543
					c-1.42-0.975-2.941-1.727-4.523-2.277c0,0,22.625-56.171,23.478-59.272c0.799-2.883-0.025-5.992-2.145-8.111
					c-1.01-1.01-2.277-1.746-3.666-2.131c-4.428-1.219-9.023,1.385-10.244,5.814c-0.855,3.104-11.043,62.825-11.043,62.825
					c-2.825-0.393-5.718-0.166-8.46,0.701c0,0-29.764-62.452-30.918-64.489c-0.373-0.656-0.832-1.258-1.361-1.787
					c-2.635-2.635-6.743-3.195-9.99-1.35c-1.934,1.094-3.326,2.881-3.924,5.023c-0.59,2.143-0.311,4.389,0.787,6.326
					c1.154,2.041,38.402,60.315,38.402,60.315c-0.235,0.211-0.479,0.414-0.704,0.639c-0.591,0.592-1.112,1.223-1.608,1.869
					c-21.541-15.092-41.356-31.213-42.283-31.752C223.165-433.315,218.061-431.959,215.757-427.987z M274.808-397.358
					c5.365-5.365,14.1-5.365,19.464,0c5.369,5.369,5.367,14.103,0.002,19.467c-5.368,5.368-14.1,5.368-19.469,0
					C269.44-383.255,269.439-391.989,274.808-397.358z"/>
				<path style="fill:#ED1C24;" d="M311.012-347.712c-2.082-1.064-4.643-0.24-5.711,1.844c-0.244,0.483-8.33,21.151-13.217,33.655
					c-0.79-0.343-1.616-0.59-2.455-0.714c0,0,1.761-22.186,1.69-23.535c-0.059-1.132-0.557-2.173-1.397-2.93
					c-0.843-0.76-1.929-1.145-3.062-1.085c-1.131,0.061-2.172,0.555-2.931,1.397c-0.757,0.841-1.143,1.93-1.085,3.062
					c0.072,1.342,3.486,23.172,3.486,23.172c-1.032,0.204-2.038,0.567-2.97,1.101c0,0-15.408-17.642-16.233-18.479
					c-0.795-0.806-1.858-1.252-2.991-1.259c-1.134-0.009-2.202,0.427-3.008,1.221c-0.059,0.062-0.119,0.121-0.175,0.184
					c-1.499,1.665-1.44,4.221,0.136,5.817c0.818,0.826,19.131,15.392,19.131,15.392c-0.498,0.714-0.89,1.474-1.174,2.27
					c0,0-36.895-11.474-38.485-11.819c-1.483-0.321-3.036,0.18-4.054,1.31c-0.491,0.546-0.834,1.216-0.992,1.938
					c-0.238,1.109-0.033,2.244,0.58,3.196c0.614,0.953,1.563,1.608,2.67,1.851c1.586,0.343,39.805,5.424,39.805,5.424
					c-0.057,0.409-0.081,0.824-0.085,1.239c-11.206-0.672-27.985-1.663-28.821-1.619c-2.337,0.123-4.14,2.119-4.018,4.456
					c0.122,2.336,2.123,4.139,4.458,4.016c0.838-0.045,17.535-2.8,28.61-4.634c0.042,0.18,0.072,0.362,0.121,0.542
					c0,0-18.246,5.754-19.498,6.35c-0.51,0.244-0.958,0.576-1.334,0.992c-1.149,1.278-1.419,3.105-0.681,4.659
					c0.487,1.023,1.342,1.798,2.407,2.179c1.07,0.381,2.22,0.321,3.244-0.163c1.254-0.595,17.155-11.203,17.155-11.203
					c0.438,0.648,0.949,1.263,1.557,1.809c0.166,0.15,0.342,0.281,0.514,0.417c0,0-17.288,23.092-18.051,24.363
					c-1.203,2.003-0.55,4.616,1.455,5.82c1.736,1.041,3.979,0.71,5.332-0.795c0.182-0.202,0.348-0.422,0.489-0.656
					c0.762-1.273,13.038-27.405,13.038-27.405c1.137,0.47,2.342,0.721,3.548,0.742c0,0-1.591,25.181-1.507,26.801
					c0.059,1.133,0.557,2.173,1.397,2.93c0.843,0.76,1.929,1.145,3.06,1.085c1.133-0.06,2.173-0.553,2.931-1.396
					c0.758-0.841,1.145-1.929,1.086-3.06c-0.084-1.625-5.012-26.522-5.012-26.522c0.477-0.088,0.944-0.219,1.407-0.376
					c4.181,12.416,11.37,33.751,11.599,34.259c0.961,2.135,3.475,3.092,5.609,2.135c2.133-0.957,3.09-3.472,2.131-5.607
					c-0.227-0.505-11.305-20.108-17.75-31.509c0.605-0.339,1.191-0.729,1.723-1.205c0,0,10.783,13.546,11.85,14.508
					c1.738,1.564,4.426,1.427,5.992-0.314c1.564-1.737,1.424-4.424-0.314-5.991c-1.072-0.967-15.721-10.374-15.721-10.374
					c0.457-0.749,0.801-1.542,1.037-2.362c0,0,26.809,9.354,28.408,9.707c1.488,0.328,3.049-0.173,4.07-1.306
					c0.486-0.542,0.828-1.207,0.984-1.923c0.504-2.284-0.943-4.553-3.229-5.058c-1.603-0.352-29.885-3.286-29.885-3.286
					c0.125-1.446-0.067-2.912-0.582-4.283c0,0,22.031-11.16,23.037-11.802c0.324-0.207,0.619-0.457,0.873-0.742
					c1.27-1.41,1.445-3.514,0.422-5.116c-0.608-0.955-1.557-1.616-2.66-1.863c-1.107-0.242-2.242-0.042-3.197,0.569
					c-1.01,0.643-20.715,15.496-20.715,15.496c-0.113-0.113-0.223-0.231-0.344-0.341c-0.316-0.284-0.652-0.532-0.993-0.767
					c7.102-11.362,18.888-30.21,19.138-30.695C313.92-344.085,313.094-346.647,311.012-347.712z M292.891-308.516
					c2.873,2.586,3.103,7.027,0.519,9.9c-2.589,2.874-7.031,3.105-9.903,0.52c-2.874-2.589-3.107-7.031-0.517-9.905
					C285.575-310.874,290.017-311.105,292.891-308.516z"/>
			</g>
			<g>
				<path style="fill:#FFD400;" d="M48.65-332.897c-2.299,3.973-0.945,9.076,3.032,11.383c0.921,0.533,24.681,9.59,48.692,20.451
					c-0.755,1.515-1.322,3.105-1.65,4.738c0,0-87.744-5.725-90.396-5.725c-2.225,0-4.314,0.867-5.887,2.439
					C0.865-298.035,0-295.946,0-293.723c0.003,2.227,0.867,4.317,2.441,5.893c1.572,1.571,3.666,2.438,5.889,2.438
					c2.639-0.004,90.219-4.457,90.219-4.457c0.289,2.045,0.9,4.052,1.85,5.933c0,0-36.162,28.398-37.884,29.929
					c-1.663,1.476-2.646,3.515-2.777,5.734c-0.134,2.22,0.612,4.358,2.088,6.021c0.114,0.125,0.224,0.246,0.339,0.362
					c3.113,3.112,8.131,3.255,11.42,0.331c1.703-1.519,32.135-35.928,32.135-35.928c1.347,1.051,2.797,1.899,4.326,2.535
					c0,0-26.271,71.152-27.111,74.232c-0.783,2.877,0.041,5.972,2.151,8.082c1.021,1.02,2.298,1.76,3.699,2.141
					c2.147,0.583,4.393,0.298,6.321-0.808c1.934-1.106,3.316-2.897,3.902-5.044c0.834-3.075,14.711-77.477,14.711-77.477
					c0.799,0.156,1.609,0.243,2.42,0.296c-2.463,21.899-6.127,54.69-6.127,56.334c0.001,4.593,3.733,8.331,8.325,8.331
					c4.592,0,8.327-3.736,8.327-8.328c-0.002-1.647-3.687-34.66-6.154-56.562c0.359-0.06,0.723-0.104,1.078-0.181
					c0,0,22.88,69.127,23.919,71.642c0.422,1.025,1.029,1.941,1.807,2.717c2.387,2.386,5.943,3.101,9.063,1.812
					c2.057-0.847,3.662-2.443,4.516-4.495c0.857-2.056,0.859-4.318,0.014-6.376c-1.035-2.517-33.672-67.547-33.672-67.547
					c1.318-0.791,2.572-1.732,3.707-2.867c0.311-0.31,0.588-0.64,0.871-0.964c0,0,43.496,36.258,45.908,37.882
					c3.805,2.565,8.992,1.555,11.559-2.253c2.221-3.298,1.799-7.729-1.01-10.537c-0.377-0.376-0.793-0.724-1.24-1.024
					c-2.412-1.624-52.389-28.361-52.389-28.361c1.043-2.183,1.654-4.52,1.82-6.885c0,0,78.478,5.7,81.664,5.703
					c2.225,0,4.316-0.868,5.887-2.439c1.576-1.575,2.443-3.664,2.441-5.888c-0.002-2.227-0.865-4.318-2.435-5.89
					c-1.574-1.571-3.668-2.438-5.891-2.438c-3.193-0.003-81.783,7.105-81.783,7.105c-0.121-0.944-0.33-1.876-0.592-2.796
					c24.768-6.922,67.33-18.836,68.346-19.23c4.283-1.662,6.418-6.496,4.76-10.775c-1.658-4.281-6.49-6.414-10.777-4.754
					c-1.01,0.391-40.576,20.1-63.584,31.569c-0.604-1.222-1.305-2.41-2.186-3.503c0,0,36.375-28.533,38.369-30.529
					c3.248-3.246,3.25-8.529,0-11.777c-3.244-3.246-8.527-3.244-11.775,0.002c-2.004,2.006-30.664,38.543-30.664,38.543
					c-1.42-0.975-2.941-1.727-4.524-2.277c0,0,22.625-56.171,23.478-59.273c0.799-2.883-0.025-5.992-2.145-8.111
					c-1.01-1.01-2.277-1.746-3.666-2.131c-4.428-1.219-9.023,1.385-10.244,5.814c-0.855,3.104-11.043,62.825-11.043,62.825
					c-2.825-0.393-5.718-0.166-8.46,0.701c0,0-29.764-62.452-30.918-64.489c-0.373-0.656-0.832-1.258-1.361-1.787
					c-2.635-2.635-6.743-3.195-9.99-1.35c-1.934,1.094-3.326,2.881-3.924,5.023c-0.59,2.143-0.312,4.389,0.787,6.326
					c1.154,2.041,38.402,60.315,38.402,60.315c-0.235,0.211-0.479,0.414-0.704,0.639c-0.591,0.592-1.112,1.223-1.608,1.869
					c-21.541-15.092-41.356-31.213-42.283-31.752C56.059-338.225,50.954-336.869,48.65-332.897z M107.701-302.268
					c5.365-5.365,14.1-5.365,19.464,0c5.369,5.369,5.367,14.103,0.002,19.467c-5.368,5.368-14.1,5.368-19.469,0
					C102.334-288.165,102.333-296.899,107.701-302.268z"/>
				<path style="fill:#A6CE39;" d="M228.106-387.65c-2.891-1.988-6.861-1.258-8.855,1.637c-0.461,0.67-16.506,29.857-26.207,47.518
					c-1.109-0.665-2.289-1.192-3.514-1.539c0,0,6.928-32.676,7.086-34.697c0.131-1.695-0.406-3.34-1.512-4.631
					c-1.107-1.295-2.648-2.078-4.344-2.209c-1.695-0.131-3.342,0.404-4.635,1.512c-1.289,1.104-2.074,2.648-2.209,4.344
					c-0.152,2.012,0.687,35.163,0.687,35.163c-1.576,0.101-3.141,0.447-4.631,1.06c0,0-19.506-29.247-20.57-30.649
					c-1.027-1.355-2.523-2.227-4.207-2.457c-1.686-0.232-3.359,0.209-4.713,1.236c-0.102,0.078-0.201,0.154-0.297,0.236
					c-2.555,2.188-2.963,6.004-0.928,8.686c1.057,1.387,25.482,26.62,25.482,26.62c-0.881,0.965-1.613,2.021-2.189,3.148
					c0,0-52.678-24.239-54.977-25.062c-2.146-0.768-4.554-0.322-6.288,1.16c-0.838,0.719-1.478,1.65-1.852,2.693
					c-0.571,1.603-0.486,3.332,0.241,4.866c0.73,1.54,2.014,2.699,3.614,3.274c2.294,0.819,58.185,15.801,58.185,15.801
					c-0.166,0.6-0.279,1.212-0.369,1.828c-16.545-3.175-41.322-7.908-42.576-8.006c-3.501-0.271-6.571,2.352-6.843,5.852
					c-0.272,3.501,2.354,6.569,5.854,6.841c1.254,0.097,26.639-0.76,43.477-1.339c0.025,0.275,0.037,0.553,0.076,0.83
					c0,0-28.271,5.02-30.25,5.664c-0.807,0.263-1.539,0.67-2.178,1.216c-1.961,1.68-2.715,4.348-1.918,6.802
					c0.523,1.617,1.646,2.936,3.158,3.709c1.518,0.775,3.24,0.91,4.859,0.388c1.98-0.641,27.705-13.34,27.705-13.34
					c0.525,1.05,1.168,2.062,1.965,2.993c0.219,0.256,0.455,0.485,0.684,0.721c0,0-30.211,31.007-31.594,32.751
					c-2.18,2.748-1.717,6.763,1.035,8.945c2.381,1.885,5.783,1.829,8.09-0.147c0.309-0.267,0.6-0.561,0.854-0.883
					c1.381-1.744,24.725-38.253,24.725-38.253c1.6,0.921,3.344,1.527,5.137,1.793c0,0-7.258,37.165-7.447,39.594
					c-0.133,1.697,0.404,3.342,1.51,4.631c1.107,1.295,2.648,2.08,4.344,2.209c1.697,0.131,3.342-0.401,4.633-1.509
					c1.291-1.104,2.076-2.648,2.209-4.344c0.189-2.434-2.309-40.442-2.309-40.442c0.729-0.038,1.449-0.141,2.168-0.286
					c3.809,19.289,10.367,52.436,10.607,53.235c1.016,3.364,4.572,5.276,7.933,4.267c3.361-1.011,5.274-4.566,4.262-7.932
					c-0.238-0.795-12.918-32.121-20.299-50.338c0.967-0.387,1.916-0.853,2.801-1.459c0,0,13.416,22.253,14.816,23.892
					c2.283,2.667,6.309,2.982,8.979,0.697c2.666-2.281,2.977-6.308,0.695-8.977c-1.41-1.646-21.381-18.492-21.381-18.492
					c0.826-1.025,1.49-2.141,2.002-3.313c0,0,38.08,19.126,40.393,19.963c2.148,0.777,4.568,0.335,6.309-1.153
					c0.83-0.711,1.467-1.635,1.84-2.671c1.191-3.302-0.52-6.959-3.824-8.152c-2.314-0.836-43.836-10.693-43.836-10.693
					c0.469-2.13,0.467-4.348-0.033-6.489c0,0,34.953-12.33,36.574-13.091c0.521-0.245,1.01-0.559,1.443-0.933
					c2.164-1.852,2.834-4.949,1.621-7.533c-0.719-1.538-2-2.707-3.598-3.287c-1.598-0.576-3.326-0.498-4.867,0.223
					c-1.627,0.762-33.838,19.041-33.838,19.041c-0.145-0.19-0.287-0.387-0.445-0.574c-0.416-0.484-0.865-0.919-1.328-1.335
					c12.777-15.527,33.975-41.288,34.439-41.962C231.729-381.689,230.997-385.66,228.106-387.65z M193.528-332.839
					c3.771,4.407,3.254,11.064-1.152,14.835c-4.41,3.774-11.066,3.258-14.838-1.149c-3.775-4.41-3.258-11.067,1.152-14.842
					C183.099-337.767,189.755-337.249,193.528-332.839z"/>
				<path style="fill:#ED1C24;" d="M143.905-252.622c-2.082-1.064-4.643-0.24-5.711,1.844c-0.244,0.483-8.33,21.151-13.217,33.655
					c-0.79-0.343-1.616-0.59-2.455-0.714c0,0,1.761-22.186,1.69-23.535c-0.059-1.132-0.557-2.173-1.397-2.93
					c-0.843-0.76-1.929-1.145-3.062-1.085c-1.131,0.06-2.172,0.555-2.931,1.397c-0.757,0.841-1.143,1.93-1.085,3.062
					c0.072,1.342,3.486,23.172,3.486,23.172c-1.032,0.204-2.038,0.567-2.97,1.101c0,0-15.408-17.642-16.233-18.478
					c-0.795-0.806-1.858-1.252-2.991-1.259c-1.134-0.009-2.202,0.427-3.008,1.221c-0.059,0.062-0.119,0.121-0.175,0.185
					c-1.499,1.665-1.439,4.221,0.136,5.817c0.818,0.826,19.131,15.392,19.131,15.392c-0.498,0.714-0.89,1.474-1.174,2.27
					c0,0-36.895-11.474-38.485-11.819c-1.483-0.321-3.036,0.18-4.054,1.31c-0.491,0.546-0.834,1.216-0.992,1.938
					c-0.238,1.109-0.033,2.244,0.58,3.196c0.614,0.953,1.563,1.608,2.67,1.851c1.586,0.343,39.805,5.424,39.805,5.424
					c-0.057,0.409-0.081,0.824-0.085,1.239c-11.206-0.672-27.985-1.663-28.821-1.619c-2.337,0.123-4.14,2.119-4.018,4.456
					c0.123,2.336,2.123,4.139,4.458,4.016c0.838-0.045,17.535-2.8,28.61-4.634c0.041,0.18,0.072,0.362,0.121,0.542
					c0,0-18.246,5.754-19.498,6.35c-0.51,0.244-0.959,0.576-1.334,0.992c-1.149,1.278-1.419,3.105-0.681,4.659
					c0.487,1.023,1.342,1.798,2.407,2.179c1.07,0.381,2.22,0.321,3.244-0.163c1.254-0.595,17.155-11.203,17.155-11.203
					c0.438,0.648,0.949,1.263,1.557,1.809c0.166,0.15,0.342,0.281,0.514,0.417c0,0-17.288,23.092-18.051,24.363
					c-1.203,2.003-0.55,4.616,1.455,5.82c1.736,1.041,3.979,0.71,5.332-0.795c0.182-0.202,0.348-0.422,0.489-0.656
					c0.762-1.272,13.038-27.405,13.038-27.405c1.137,0.47,2.342,0.721,3.548,0.742c0,0-1.591,25.181-1.507,26.801
					c0.059,1.133,0.557,2.173,1.397,2.93c0.843,0.76,1.929,1.146,3.06,1.085c1.133-0.06,2.173-0.553,2.931-1.396
					c0.758-0.841,1.145-1.929,1.086-3.06c-0.084-1.625-5.012-26.523-5.012-26.523c0.477-0.088,0.944-0.219,1.407-0.376
					c4.181,12.416,11.37,33.751,11.599,34.259c0.961,2.135,3.475,3.092,5.609,2.135c2.133-0.957,3.09-3.472,2.131-5.607
					c-0.227-0.505-11.305-20.108-17.75-31.509c0.605-0.339,1.191-0.729,1.723-1.205c0,0,10.783,13.546,11.85,14.508
					c1.738,1.565,4.426,1.427,5.992-0.313c1.564-1.737,1.424-4.424-0.314-5.991c-1.072-0.967-15.721-10.374-15.721-10.374
					c0.457-0.749,0.801-1.542,1.037-2.362c0,0,26.809,9.354,28.408,9.707c1.488,0.328,3.049-0.173,4.07-1.306
					c0.486-0.542,0.828-1.207,0.984-1.923c0.504-2.284-0.943-4.553-3.229-5.058c-1.603-0.352-29.885-3.286-29.885-3.286
					c0.125-1.446-0.066-2.912-0.582-4.283c0,0,22.031-11.16,23.037-11.802c0.324-0.207,0.619-0.457,0.873-0.742
					c1.27-1.41,1.445-3.514,0.422-5.116c-0.607-0.955-1.557-1.616-2.66-1.863c-1.107-0.242-2.242-0.042-3.197,0.569
					c-1.01,0.643-20.715,15.496-20.715,15.496c-0.113-0.113-0.223-0.232-0.344-0.341c-0.316-0.284-0.652-0.532-0.993-0.767
					c7.103-11.362,18.888-30.21,19.138-30.695C146.813-248.995,145.987-251.557,143.905-252.622z M125.784-213.426
					c2.873,2.586,3.104,7.027,0.519,9.9c-2.589,2.874-7.031,3.105-9.903,0.52c-2.874-2.589-3.107-7.031-0.517-9.905
					C118.469-215.785,122.91-216.015,125.784-213.426z"/>
			</g>
			<g>
				<path style="fill:#00BAC6;" d="M438.308-151.701c-1.043-2.906-4.255-4.424-7.168-3.379c-0.674,0.242-16.579,8.967-32.584,16.603
					c-0.451-1.045-1.022-2.029-1.719-2.904c0,0,46.422-49.042,47.572-50.407c0.963-1.143,1.424-2.594,1.299-4.084
					c-0.127-1.496-0.826-2.844-1.969-3.811c-1.146-0.965-2.596-1.426-4.088-1.301c-1.49,0.127-2.845,0.828-3.811,1.969
					c-1.142,1.359-42.258,54.731-42.258,54.731c-1.178-0.736-2.475-1.293-3.854-1.621c0,0,1.088-30.917,1.049-32.466
					c-0.039-1.496-0.66-2.887-1.746-3.918c-1.082-1.031-2.505-1.574-4.001-1.539c-0.112,0.008-0.222,0.01-0.331,0.02
					c-2.953,0.248-5.203,2.768-5.127,5.727c0.041,1.535,4.531,32.114,4.531,32.114c-1.125,0.236-2.19,0.613-3.18,1.123
					c0,0-25.19-44.38-26.408-46.15c-1.14-1.65-3.09-2.57-5.09-2.398c-0.967,0.082-1.902,0.418-2.705,0.973
					c-1.23,0.852-2.061,2.129-2.327,3.602c-0.271,1.473,0.051,2.961,0.899,4.193c1.221,1.762,33.455,41.181,33.455,41.181
					c-0.425,0.344-0.822,0.723-1.201,1.115c-10.191-10.768-25.463-26.878-26.309-27.591c-2.363-1.992-5.902-1.695-7.896,0.666
					c-1.991,2.359-1.691,5.9,0.669,7.894c0.849,0.713,19.423,13.143,31.755,21.377c-0.125,0.209-0.26,0.416-0.375,0.633
					c0,0-45.473-18.229-47.217-18.785c-0.709-0.228-1.443-0.312-2.181-0.248c-2.263,0.191-4.174,1.709-4.864,3.873
					c-0.456,1.424-0.331,2.943,0.352,4.272c0.686,1.332,1.849,2.316,3.273,2.773c1.742,0.559,49.343,11.994,49.343,11.994
					c-0.165,1.02-0.224,2.074-0.134,3.15c0.025,0.293,0.073,0.58,0.117,0.865c0,0-37.516,6.635-39.398,7.17
					c-2.969,0.844-4.699,3.947-3.855,6.92c0.732,2.573,3.193,4.28,5.855,4.055c0.357-0.03,0.717-0.094,1.065-0.193
					c1.883-0.535,37.314-14.633,37.314-14.633c0.67,1.48,1.607,2.811,2.752,3.924c0,0-44.095,46.308-45.478,47.945
					c-0.966,1.145-1.427,2.596-1.301,4.086c0.127,1.493,0.825,2.845,1.969,3.809c1.146,0.965,2.596,1.429,4.086,1.303
					c1.491-0.127,2.845-0.828,3.809-1.972c1.388-1.641,38.943-53.565,38.943-53.565c0.539,0.348,1.109,0.645,1.693,0.908
					c-7.186,15.739-19.527,42.794-19.765,43.488c-1.005,2.923,0.556,6.118,3.476,7.122c2.922,1.005,6.115-0.554,7.12-3.479
					c0.237-0.689,7.27-29.586,11.356-46.395c0.889,0.221,1.805,0.379,2.749,0.398c0,0-1.11,31.085-0.95,32.976
					c0.26,3.079,2.976,5.372,6.057,5.11c3.076-0.261,5.369-2.978,5.108-6.056c-0.161-1.9-6.515-32.491-6.515-32.491
					c1.117-0.307,2.164-0.764,3.135-1.338c0,0,26.371,46.34,27.595,48.125c1.136,1.661,3.093,2.587,5.101,2.417
					c0.958-0.081,1.887-0.414,2.686-0.961c2.548-1.747,3.204-5.241,1.455-7.79c-1.224-1.787-34.818-43.273-34.818-43.273
					c1.429-1.281,2.566-2.867,3.311-4.654c0,0,45.028,11.795,46.576,12.084c0.5,0.092,1.008,0.117,1.51,0.074
					c2.499-0.211,4.568-2.08,5.028-4.549c0.277-1.471-0.037-2.961-0.881-4.199c-0.846-1.232-2.121-2.064-3.593-2.34
					c-1.553-0.293-47.678-6.424-47.678-6.424c-0.008-0.213-0.006-0.424-0.025-0.639c-0.047-0.561-0.145-1.102-0.262-1.639
					c17.107-4.527,34.934-8.16,35.613-8.402C437.835-145.58,439.352-148.791,438.308-151.701z M395.997-134.188
					c0.431,5.086-3.358,9.576-8.445,10.008c-5.089,0.432-9.58-3.359-10.01-8.445c-0.432-5.09,3.357-9.58,8.446-10.012
					C391.075-143.068,395.565-139.279,395.997-134.188z"/>
				<path style="fill:#FFD400;" d="M382.863-142.717c-2.299,3.973-0.945,9.076,3.032,11.383c0.921,0.533,24.681,9.59,48.692,20.451
					c-0.755,1.515-1.322,3.104-1.65,4.738c0,0-87.744-5.725-90.397-5.725c-2.225,0-4.314,0.867-5.888,2.439
					c-1.575,1.575-2.44,3.664-2.44,5.887c0.003,2.227,0.866,4.317,2.441,5.893c1.572,1.571,3.666,2.438,5.889,2.439
					c2.639-0.004,90.219-4.457,90.219-4.457c0.289,2.045,0.9,4.052,1.85,5.933c0,0-36.162,28.397-37.884,29.929
					c-1.663,1.476-2.646,3.515-2.777,5.734c-0.134,2.22,0.612,4.358,2.088,6.021c0.114,0.125,0.224,0.246,0.339,0.362
					c3.113,3.112,8.131,3.255,11.42,0.331c1.703-1.519,32.135-35.928,32.135-35.928c1.347,1.051,2.797,1.899,4.326,2.535
					c0,0-26.27,71.152-27.111,74.232c-0.783,2.877,0.041,5.972,2.151,8.082c1.021,1.02,2.298,1.76,3.699,2.141
					c2.147,0.583,4.393,0.298,6.321-0.808c1.934-1.106,3.316-2.897,3.902-5.044c0.834-3.075,14.711-77.477,14.711-77.477
					c0.799,0.156,1.609,0.243,2.42,0.296c-2.463,21.898-6.127,54.69-6.127,56.334c0.001,4.593,3.733,8.331,8.325,8.331
					s8.327-3.736,8.327-8.328c-0.002-1.646-3.688-34.66-6.154-56.561c0.359-0.06,0.723-0.104,1.078-0.181
					c0,0,22.88,69.127,23.919,71.642c0.422,1.024,1.029,1.94,1.807,2.717c2.387,2.386,5.943,3.101,9.062,1.812
					c2.057-0.847,3.662-2.443,4.516-4.495c0.857-2.056,0.859-4.318,0.014-6.376c-1.035-2.517-33.672-67.547-33.672-67.547
					c1.318-0.791,2.572-1.733,3.707-2.867c0.311-0.31,0.588-0.64,0.871-0.964c0,0,43.496,36.258,45.908,37.882
					c3.805,2.565,8.992,1.555,11.559-2.253c2.221-3.298,1.799-7.728-1.01-10.537c-0.377-0.376-0.793-0.724-1.24-1.024
					c-2.412-1.624-52.389-28.361-52.389-28.361c1.043-2.183,1.654-4.52,1.82-6.885c0,0,78.478,5.7,81.664,5.703
					c2.225,0,4.316-0.868,5.887-2.439c1.576-1.575,2.444-3.664,2.441-5.888c-0.002-2.227-0.865-4.318-2.435-5.89
					c-1.574-1.571-3.668-2.438-5.891-2.438c-3.193-0.003-81.783,7.105-81.783,7.105c-0.121-0.944-0.33-1.876-0.592-2.796
					c24.767-6.922,67.33-18.836,68.346-19.23c4.283-1.662,6.418-6.496,4.76-10.775c-1.658-4.281-6.49-6.414-10.777-4.754
					c-1.01,0.391-40.576,20.1-63.584,31.569c-0.604-1.222-1.305-2.41-2.186-3.503c0,0,36.375-28.533,38.369-30.529
					c3.248-3.246,3.25-8.529,0-11.777c-3.244-3.246-8.527-3.244-11.775,0.002c-2.004,2.006-30.664,38.543-30.664,38.543
					c-1.42-0.975-2.941-1.727-4.523-2.277c0,0,22.625-56.171,23.479-59.272c0.799-2.883-0.025-5.992-2.145-8.111
					c-1.01-1.01-2.277-1.746-3.666-2.131c-4.428-1.219-9.023,1.385-10.244,5.815c-0.855,3.103-11.043,62.825-11.043,62.825
					c-2.825-0.393-5.718-0.166-8.46,0.701c0,0-29.764-62.452-30.918-64.489c-0.373-0.656-0.832-1.258-1.361-1.787
					c-2.635-2.635-6.743-3.195-9.99-1.35c-1.934,1.094-3.326,2.881-3.924,5.023c-0.59,2.143-0.312,4.389,0.787,6.326
					c1.154,2.041,38.402,60.315,38.402,60.315c-0.235,0.211-0.479,0.414-0.704,0.639c-0.591,0.592-1.112,1.223-1.608,1.869
					c-21.541-15.092-41.356-31.213-42.283-31.752C390.271-148.045,385.167-146.689,382.863-142.717z M441.914-112.088
					c5.365-5.365,14.1-5.365,19.464,0c5.369,5.369,5.367,14.103,0.002,19.467c-5.368,5.368-14.1,5.368-19.469,0
					C436.547-97.986,436.546-106.719,441.914-112.088z"/>
				<path style="fill:#A6CE39;" d="M562.319-197.469c-2.891-1.988-6.861-1.258-8.855,1.637c-0.461,0.67-16.506,29.857-26.207,47.518
					c-1.109-0.665-2.289-1.192-3.514-1.539c0,0,6.928-32.676,7.086-34.697c0.131-1.695-0.406-3.34-1.512-4.631
					c-1.107-1.295-2.648-2.078-4.344-2.209c-1.695-0.131-3.342,0.404-4.635,1.512c-1.289,1.103-2.074,2.648-2.209,4.344
					c-0.152,2.012,0.688,35.163,0.688,35.163c-1.576,0.102-3.141,0.447-4.631,1.06c0,0-19.506-29.247-20.57-30.649
					c-1.027-1.355-2.523-2.227-4.207-2.457c-1.686-0.233-3.359,0.209-4.713,1.236c-0.102,0.078-0.201,0.154-0.297,0.236
					c-2.555,2.188-2.963,6.004-0.928,8.686c1.057,1.387,25.482,26.62,25.482,26.62c-0.881,0.965-1.613,2.021-2.19,3.148
					c0,0-52.678-24.239-54.977-25.061c-2.146-0.768-4.554-0.322-6.287,1.16c-0.838,0.719-1.479,1.65-1.852,2.693
					c-0.572,1.603-0.486,3.332,0.24,4.866c0.73,1.54,2.015,2.699,3.614,3.273c2.294,0.819,58.185,15.801,58.185,15.801
					c-0.166,0.6-0.279,1.212-0.369,1.828c-16.545-3.175-41.322-7.908-42.576-8.006c-3.501-0.271-6.571,2.352-6.843,5.852
					c-0.272,3.501,2.354,6.569,5.854,6.841c1.254,0.097,26.639-0.76,43.477-1.339c0.025,0.275,0.037,0.553,0.076,0.83
					c0,0-28.271,5.02-30.25,5.664c-0.807,0.263-1.539,0.67-2.178,1.216c-1.961,1.68-2.715,4.348-1.918,6.802
					c0.523,1.617,1.647,2.937,3.158,3.709c1.518,0.775,3.24,0.91,4.859,0.388c1.98-0.641,27.705-13.34,27.705-13.34
					c0.525,1.05,1.168,2.062,1.965,2.993c0.219,0.256,0.455,0.485,0.684,0.721c0,0-30.211,31.007-31.594,32.751
					c-2.18,2.748-1.717,6.763,1.035,8.945c2.381,1.885,5.783,1.829,8.09-0.147c0.309-0.267,0.6-0.561,0.853-0.883
					c1.381-1.744,24.725-38.253,24.725-38.253c1.6,0.921,3.344,1.527,5.137,1.793c0,0-7.258,37.165-7.447,39.594
					c-0.133,1.697,0.404,3.342,1.51,4.631c1.107,1.295,2.648,2.08,4.344,2.209c1.697,0.131,3.342-0.401,4.633-1.509
					c1.291-1.104,2.076-2.648,2.209-4.344c0.19-2.434-2.308-40.442-2.308-40.442c0.728-0.038,1.449-0.141,2.168-0.286
					c3.809,19.289,10.367,52.437,10.607,53.235c1.016,3.364,4.572,5.276,7.934,4.267c3.361-1.011,5.273-4.566,4.262-7.932
					c-0.238-0.795-12.918-32.121-20.299-50.338c0.967-0.387,1.916-0.853,2.801-1.459c0,0,13.416,22.253,14.816,23.892
					c2.283,2.667,6.309,2.982,8.979,0.697c2.666-2.281,2.977-6.308,0.695-8.977c-1.41-1.646-21.381-18.492-21.381-18.492
					c0.826-1.025,1.49-2.141,2.002-3.314c0,0,38.08,19.126,40.393,19.963c2.149,0.777,4.568,0.335,6.309-1.153
					c0.83-0.711,1.467-1.635,1.84-2.671c1.191-3.302-0.52-6.959-3.824-8.152c-2.314-0.836-43.836-10.693-43.836-10.693
					c0.469-2.13,0.467-4.348-0.033-6.489c0,0,34.953-12.33,36.574-13.091c0.521-0.245,1.01-0.559,1.443-0.933
					c2.164-1.852,2.834-4.949,1.621-7.533c-0.719-1.538-2-2.707-3.598-3.287c-1.598-0.576-3.326-0.498-4.867,0.223
					c-1.627,0.762-33.838,19.041-33.838,19.041c-0.144-0.19-0.287-0.387-0.445-0.574c-0.416-0.484-0.865-0.919-1.328-1.335
					c12.777-15.527,33.975-41.288,34.439-41.962C565.942-191.508,565.21-195.48,562.319-197.469z M527.741-142.66
					c3.771,4.407,3.254,11.064-1.152,14.835c-4.41,3.774-11.066,3.258-14.838-1.149c-3.775-4.41-3.258-11.067,1.152-14.842
					C517.311-147.587,523.968-147.07,527.741-142.66z"/>
			</g>
			<g>
				<path style="fill:#00BAC6;" d="M271.201-246.791c-1.044-2.906-4.255-4.424-7.168-3.379c-0.673,0.242-16.579,8.967-32.584,16.604
					c-0.451-1.045-1.022-2.029-1.72-2.904c0,0,46.422-49.042,47.572-50.407c0.963-1.143,1.425-2.594,1.299-4.084
					c-0.127-1.496-0.825-2.844-1.968-3.811c-1.146-0.965-2.596-1.426-4.089-1.301c-1.49,0.127-2.844,0.828-3.811,1.969
					c-1.141,1.359-42.257,54.731-42.257,54.731c-1.177-0.736-2.475-1.293-3.853-1.621c0,0,1.087-30.917,1.048-32.466
					c-0.039-1.496-0.66-2.887-1.746-3.918c-1.083-1.031-2.505-1.574-4.001-1.539c-0.113,0.008-0.222,0.01-0.331,0.02
					c-2.953,0.248-5.203,2.768-5.127,5.727c0.042,1.535,4.532,32.114,4.532,32.114c-1.125,0.236-2.19,0.613-3.18,1.123
					c0,0-25.19-44.38-26.408-46.149c-1.14-1.65-3.09-2.57-5.09-2.398c-0.967,0.082-1.902,0.418-2.705,0.973
					c-1.231,0.852-2.06,2.129-2.327,3.602c-0.271,1.473,0.051,2.961,0.9,4.193c1.22,1.762,33.455,41.181,33.455,41.181
					c-0.425,0.344-0.823,0.723-1.201,1.115c-10.191-10.768-25.463-26.878-26.31-27.591c-2.362-1.992-5.902-1.695-7.895,0.666
					c-1.992,2.359-1.692,5.9,0.668,7.894c0.849,0.713,19.423,13.143,31.755,21.377c-0.125,0.209-0.26,0.416-0.375,0.633
					c0,0-45.473-18.229-47.217-18.785c-0.709-0.229-1.444-0.312-2.181-0.248c-2.262,0.191-4.174,1.709-4.864,3.873
					c-0.456,1.424-0.331,2.943,0.352,4.271c0.685,1.332,1.849,2.316,3.273,2.773c1.743,0.559,49.343,11.994,49.343,11.994
					c-0.165,1.02-0.224,2.074-0.133,3.15c0.025,0.293,0.073,0.58,0.116,0.865c0,0-37.515,6.635-39.398,7.17
					c-2.969,0.844-4.699,3.947-3.855,6.92c0.732,2.573,3.193,4.28,5.855,4.055c0.358-0.03,0.717-0.094,1.065-0.193
					c1.882-0.535,37.314-14.633,37.314-14.633c0.67,1.48,1.607,2.811,2.751,3.924c0,0-44.094,46.308-45.479,47.945
					c-0.965,1.145-1.426,2.596-1.3,4.086c0.127,1.493,0.825,2.845,1.969,3.81c1.146,0.965,2.595,1.429,4.085,1.303
					c1.491-0.127,2.845-0.828,3.809-1.972c1.388-1.641,38.943-53.564,38.943-53.564c0.539,0.348,1.109,0.645,1.694,0.908
					c-7.186,15.739-19.528,42.794-19.765,43.488c-1.005,2.923,0.556,6.118,3.476,7.122c2.921,1.005,6.116-0.554,7.12-3.478
					c0.237-0.689,7.271-29.586,11.356-46.396c0.889,0.221,1.804,0.379,2.749,0.398c0,0-1.111,31.085-0.951,32.975
					c0.261,3.079,2.976,5.372,6.057,5.11c3.077-0.261,5.37-2.978,5.109-6.056c-0.161-1.9-6.515-32.491-6.515-32.491
					c1.117-0.307,2.165-0.764,3.135-1.338c0,0,26.371,46.34,27.594,48.125c1.136,1.661,3.092,2.587,5.101,2.417
					c0.958-0.081,1.886-0.414,2.686-0.961c2.547-1.747,3.204-5.241,1.455-7.79c-1.223-1.787-34.818-43.273-34.818-43.273
					c1.429-1.281,2.566-2.867,3.311-4.654c0,0,45.029,11.795,46.576,12.084c0.5,0.092,1.008,0.117,1.51,0.074
					c2.499-0.211,4.569-2.08,5.028-4.549c0.277-1.471-0.037-2.961-0.881-4.199c-0.846-1.232-2.121-2.065-3.593-2.34
					c-1.552-0.293-47.678-6.424-47.678-6.424c-0.008-0.213-0.006-0.424-0.024-0.639c-0.047-0.561-0.146-1.102-0.262-1.639
					c17.107-4.527,34.934-8.16,35.613-8.402C270.728-240.67,272.246-243.881,271.201-246.791z M228.89-229.278
					c0.431,5.086-3.358,9.576-8.445,10.008c-5.088,0.432-9.579-3.359-10.01-8.445c-0.432-5.09,3.358-9.58,8.447-10.012
					C223.969-238.159,228.459-234.369,228.89-229.278z"/>
				<path style="fill:#FFD400;" d="M215.757-237.807c-2.299,3.973-0.945,9.076,3.032,11.383c0.921,0.533,24.681,9.59,48.692,20.451
					c-0.755,1.515-1.322,3.104-1.65,4.738c0,0-87.744-5.725-90.396-5.725c-2.225,0-4.314,0.867-5.887,2.44
					c-1.576,1.575-2.441,3.664-2.441,5.887c0.003,2.227,0.867,4.317,2.441,5.893c1.572,1.571,3.666,2.438,5.889,2.438
					c2.639-0.004,90.219-4.457,90.219-4.457c0.289,2.045,0.9,4.052,1.85,5.933c0,0-36.162,28.397-37.884,29.929
					c-1.663,1.476-2.646,3.515-2.777,5.734c-0.134,2.22,0.612,4.358,2.088,6.021c0.114,0.125,0.224,0.246,0.339,0.362
					c3.113,3.112,8.131,3.255,11.42,0.331c1.703-1.519,32.135-35.928,32.135-35.928c1.347,1.051,2.797,1.899,4.326,2.535
					c0,0-26.271,71.152-27.111,74.232c-0.783,2.877,0.041,5.972,2.151,8.082c1.021,1.02,2.298,1.76,3.699,2.141
					c2.147,0.583,4.394,0.298,6.321-0.808c1.934-1.107,3.316-2.898,3.902-5.044c0.834-3.075,14.711-77.477,14.711-77.477
					c0.799,0.156,1.609,0.243,2.42,0.296c-2.463,21.898-6.127,54.689-6.127,56.334c0.001,4.593,3.733,8.331,8.325,8.331
					s8.327-3.736,8.327-8.328c-0.002-1.647-3.688-34.66-6.154-56.562c0.359-0.06,0.723-0.104,1.078-0.181
					c0,0,22.88,69.127,23.919,71.642c0.422,1.024,1.029,1.94,1.807,2.717c2.387,2.386,5.943,3.101,9.062,1.812
					c2.057-0.847,3.662-2.443,4.516-4.495c0.858-2.056,0.859-4.318,0.014-6.376c-1.035-2.517-33.672-67.547-33.672-67.547
					c1.318-0.791,2.572-1.732,3.707-2.867c0.31-0.31,0.588-0.64,0.871-0.964c0,0,43.496,36.258,45.908,37.882
					c3.805,2.565,8.992,1.555,11.559-2.253c2.221-3.298,1.799-7.729-1.01-10.537c-0.377-0.376-0.793-0.724-1.24-1.025
					c-2.412-1.624-52.389-28.361-52.389-28.361c1.043-2.183,1.654-4.52,1.82-6.885c0,0,78.478,5.7,81.664,5.703
					c2.225,0,4.316-0.868,5.887-2.44c1.576-1.575,2.443-3.664,2.441-5.888c-0.002-2.227-0.865-4.318-2.436-5.89
					c-1.574-1.571-3.668-2.438-5.891-2.438c-3.193-0.003-81.783,7.105-81.783,7.105c-0.121-0.944-0.33-1.876-0.592-2.796
					c24.768-6.922,67.33-18.836,68.346-19.23c4.283-1.662,6.418-6.496,4.76-10.775c-1.658-4.281-6.49-6.414-10.777-4.754
					c-1.01,0.391-40.576,20.1-63.584,31.569c-0.604-1.222-1.305-2.41-2.186-3.503c0,0,36.375-28.533,38.369-30.529
					c3.248-3.246,3.25-8.529,0-11.777c-3.244-3.246-8.527-3.244-11.775,0.002c-2.004,2.006-30.664,38.543-30.664,38.543
					c-1.42-0.975-2.941-1.727-4.523-2.277c0,0,22.625-56.171,23.478-59.272c0.799-2.883-0.025-5.992-2.145-8.111
					c-1.01-1.01-2.277-1.746-3.666-2.131c-4.428-1.219-9.023,1.385-10.244,5.814c-0.855,3.104-11.043,62.825-11.043,62.825
					c-2.825-0.393-5.718-0.166-8.46,0.701c0,0-29.764-62.452-30.918-64.489c-0.373-0.656-0.832-1.258-1.361-1.787
					c-2.635-2.635-6.743-3.195-9.99-1.35c-1.934,1.094-3.326,2.881-3.924,5.023c-0.59,2.143-0.311,4.389,0.787,6.326
					c1.154,2.041,38.402,60.316,38.402,60.316c-0.235,0.211-0.479,0.414-0.704,0.639c-0.591,0.592-1.112,1.223-1.608,1.869
					c-21.541-15.092-41.356-31.213-42.283-31.752C223.165-243.135,218.061-241.78,215.757-237.807z M274.808-207.178
					c5.365-5.365,14.1-5.365,19.464,0c5.369,5.369,5.367,14.102,0.002,19.467c-5.368,5.368-14.1,5.368-19.469,0
					C269.44-193.076,269.439-201.809,274.808-207.178z"/>
				<path style="fill:#A6CE39;" d="M395.213-292.56c-2.891-1.988-6.861-1.258-8.855,1.637c-0.461,0.67-16.506,29.857-26.207,47.517
					c-1.109-0.665-2.289-1.192-3.514-1.539c0,0,6.928-32.676,7.086-34.697c0.131-1.695-0.406-3.34-1.512-4.631
					c-1.107-1.295-2.648-2.078-4.344-2.209c-1.695-0.131-3.342,0.404-4.635,1.512c-1.289,1.104-2.074,2.648-2.209,4.344
					c-0.152,2.012,0.688,35.163,0.688,35.163c-1.576,0.102-3.141,0.447-4.631,1.061c0,0-19.506-29.247-20.57-30.65
					c-1.027-1.355-2.523-2.226-4.207-2.457c-1.686-0.232-3.359,0.209-4.713,1.236c-0.102,0.078-0.201,0.154-0.297,0.236
					c-2.555,2.188-2.963,6.004-0.928,8.686c1.057,1.387,25.482,26.62,25.482,26.62c-0.881,0.965-1.613,2.021-2.189,3.148
					c0,0-52.678-24.239-54.977-25.061c-2.146-0.768-4.554-0.322-6.288,1.16c-0.838,0.719-1.478,1.65-1.852,2.693
					c-0.571,1.602-0.486,3.332,0.241,4.866c0.73,1.54,2.014,2.699,3.614,3.273c2.294,0.819,58.185,15.801,58.185,15.801
					c-0.166,0.6-0.279,1.212-0.369,1.828c-16.545-3.175-41.322-7.908-42.576-8.006c-3.501-0.271-6.571,2.352-6.843,5.852
					c-0.272,3.501,2.355,6.569,5.855,6.841c1.254,0.097,26.639-0.76,43.477-1.339c0.025,0.275,0.037,0.553,0.076,0.83
					c0,0-28.272,5.019-30.25,5.664c-0.807,0.263-1.539,0.67-2.178,1.216c-1.961,1.68-2.715,4.348-1.918,6.802
					c0.523,1.617,1.647,2.936,3.158,3.709c1.518,0.775,3.24,0.91,4.859,0.388c1.98-0.641,27.705-13.34,27.705-13.34
					c0.525,1.05,1.168,2.062,1.965,2.993c0.219,0.256,0.455,0.485,0.684,0.721c0,0-30.211,31.007-31.594,32.751
					c-2.18,2.748-1.717,6.763,1.035,8.945c2.381,1.885,5.783,1.829,8.09-0.147c0.309-0.267,0.6-0.561,0.854-0.883
					c1.381-1.744,24.725-38.253,24.725-38.253c1.6,0.921,3.344,1.527,5.137,1.793c0,0-7.258,37.165-7.447,39.594
					c-0.133,1.697,0.404,3.342,1.51,4.631c1.107,1.295,2.648,2.08,4.344,2.209c1.697,0.131,3.342-0.401,4.633-1.509
					c1.291-1.104,2.076-2.648,2.209-4.344c0.189-2.434-2.309-40.442-2.309-40.442c0.729-0.038,1.449-0.141,2.168-0.286
					c3.809,19.289,10.367,52.436,10.607,53.235c1.016,3.364,4.572,5.276,7.934,4.267c3.361-1.011,5.273-4.566,4.262-7.932
					c-0.238-0.795-12.918-32.121-20.299-50.338c0.967-0.387,1.916-0.852,2.801-1.459c0,0,13.416,22.253,14.816,23.892
					c2.283,2.667,6.309,2.982,8.978,0.697c2.666-2.281,2.977-6.308,0.695-8.977c-1.41-1.646-21.381-18.492-21.381-18.492
					c0.826-1.025,1.49-2.141,2.002-3.313c0,0,38.08,19.126,40.393,19.963c2.148,0.777,4.568,0.335,6.309-1.153
					c0.83-0.711,1.467-1.635,1.84-2.671c1.191-3.302-0.52-6.959-3.824-8.152c-2.315-0.836-43.836-10.693-43.836-10.693
					c0.469-2.13,0.467-4.348-0.033-6.489c0,0,34.953-12.33,36.574-13.091c0.521-0.245,1.01-0.559,1.443-0.933
					c2.164-1.852,2.834-4.949,1.621-7.533c-0.719-1.538-2-2.707-3.598-3.287c-1.598-0.576-3.326-0.498-4.867,0.223
					c-1.627,0.762-33.838,19.041-33.838,19.041c-0.145-0.19-0.287-0.387-0.445-0.574c-0.416-0.484-0.865-0.919-1.328-1.335
					c12.777-15.527,33.975-41.288,34.439-41.962C398.836-286.599,398.103-290.57,395.213-292.56z M360.635-237.749
					c3.771,4.407,3.254,11.063-1.152,14.835c-4.41,3.774-11.066,3.258-14.838-1.149c-3.775-4.41-3.258-11.067,1.152-14.842
					C350.205-242.677,356.861-242.16,360.635-237.749z"/>
				<path style="fill:#ED1C24;" d="M311.012-157.533c-2.082-1.064-4.643-0.24-5.711,1.844c-0.244,0.483-8.33,21.151-13.217,33.655
					c-0.79-0.343-1.616-0.59-2.455-0.714c0,0,1.761-22.186,1.69-23.535c-0.059-1.132-0.557-2.173-1.397-2.93
					c-0.843-0.76-1.929-1.145-3.062-1.085c-1.131,0.061-2.172,0.555-2.931,1.397c-0.757,0.841-1.143,1.93-1.085,3.062
					c0.072,1.342,3.486,23.172,3.486,23.172c-1.032,0.204-2.038,0.567-2.97,1.101c0,0-15.408-17.642-16.233-18.479
					c-0.795-0.806-1.858-1.252-2.991-1.259c-1.134-0.009-2.202,0.427-3.008,1.221c-0.059,0.062-0.119,0.121-0.175,0.185
					c-1.499,1.665-1.44,4.221,0.136,5.817c0.818,0.826,19.131,15.392,19.131,15.392c-0.498,0.714-0.89,1.474-1.174,2.27
					c0,0-36.895-11.474-38.485-11.819c-1.483-0.321-3.036,0.18-4.054,1.31c-0.491,0.546-0.834,1.216-0.992,1.938
					c-0.238,1.109-0.033,2.244,0.58,3.196c0.614,0.953,1.563,1.608,2.67,1.85c1.586,0.343,39.805,5.424,39.805,5.424
					c-0.057,0.409-0.081,0.824-0.085,1.239c-11.206-0.672-27.985-1.663-28.821-1.619c-2.337,0.123-4.14,2.119-4.018,4.456
					c0.122,2.336,2.123,4.139,4.458,4.016c0.838-0.045,17.535-2.8,28.61-4.634c0.042,0.18,0.072,0.362,0.121,0.542
					c0,0-18.246,5.754-19.498,6.35c-0.51,0.244-0.958,0.576-1.334,0.992c-1.149,1.278-1.419,3.105-0.681,4.659
					c0.487,1.023,1.342,1.798,2.407,2.179c1.07,0.381,2.22,0.321,3.244-0.163c1.254-0.595,17.155-11.203,17.155-11.203
					c0.438,0.648,0.949,1.263,1.557,1.809c0.166,0.15,0.342,0.281,0.514,0.417c0,0-17.288,23.092-18.051,24.363
					c-1.203,2.003-0.55,4.616,1.455,5.82c1.736,1.041,3.979,0.71,5.332-0.795c0.182-0.202,0.348-0.422,0.489-0.656
					c0.762-1.272,13.038-27.405,13.038-27.405c1.137,0.47,2.342,0.721,3.548,0.742c0,0-1.591,25.181-1.507,26.801
					c0.059,1.133,0.557,2.173,1.397,2.93c0.843,0.76,1.929,1.146,3.06,1.085c1.133-0.06,2.173-0.553,2.931-1.397
					c0.758-0.841,1.145-1.929,1.086-3.06c-0.084-1.625-5.012-26.522-5.012-26.522c0.477-0.088,0.944-0.219,1.407-0.376
					c4.181,12.416,11.37,33.751,11.599,34.259c0.961,2.135,3.475,3.092,5.609,2.135c2.133-0.957,3.09-3.472,2.131-5.608
					c-0.227-0.505-11.305-20.108-17.75-31.509c0.605-0.339,1.191-0.729,1.723-1.205c0,0,10.783,13.546,11.85,14.508
					c1.738,1.564,4.426,1.427,5.992-0.314c1.564-1.737,1.424-4.424-0.314-5.991c-1.072-0.967-15.721-10.374-15.721-10.374
					c0.457-0.749,0.801-1.542,1.037-2.362c0,0,26.809,9.354,28.408,9.707c1.488,0.328,3.049-0.173,4.07-1.306
					c0.486-0.542,0.828-1.207,0.984-1.923c0.504-2.284-0.943-4.553-3.229-5.058c-1.603-0.352-29.885-3.286-29.885-3.286
					c0.125-1.446-0.067-2.912-0.582-4.283c0,0,22.031-11.16,23.037-11.802c0.324-0.207,0.619-0.457,0.873-0.742
					c1.27-1.41,1.445-3.514,0.422-5.116c-0.608-0.955-1.557-1.616-2.66-1.863c-1.107-0.242-2.242-0.042-3.197,0.569
					c-1.01,0.643-20.715,15.496-20.715,15.496c-0.113-0.113-0.223-0.231-0.344-0.341c-0.316-0.284-0.652-0.532-0.993-0.767
					c7.102-11.362,18.888-30.21,19.138-30.695C313.92-153.906,313.094-156.467,311.012-157.533z M292.891-118.336
					c2.873,2.586,3.103,7.027,0.519,9.9c-2.589,2.874-7.031,3.105-9.903,0.52c-2.874-2.589-3.107-7.031-0.517-9.905
					C285.575-120.695,290.017-120.925,292.891-118.336z"/>
			</g>
			<g>
				<path style="fill:#FFD400;" d="M48.65-142.717c-2.299,3.973-0.945,9.076,3.032,11.383c0.921,0.533,24.681,9.59,48.692,20.451
					c-0.755,1.515-1.322,3.104-1.65,4.738c0,0-87.744-5.725-90.396-5.725c-2.225,0-4.314,0.867-5.887,2.439
					C0.865-107.855,0-105.766,0-103.543c0.003,2.227,0.867,4.317,2.441,5.893c1.572,1.571,3.666,2.438,5.889,2.439
					c2.639-0.004,90.219-4.457,90.219-4.457c0.289,2.045,0.9,4.052,1.85,5.933c0,0-36.162,28.397-37.884,29.929
					c-1.663,1.476-2.646,3.515-2.777,5.734c-0.134,2.22,0.612,4.358,2.088,6.021c0.114,0.125,0.224,0.246,0.339,0.362
					c3.113,3.112,8.131,3.255,11.42,0.331c1.703-1.519,32.135-35.928,32.135-35.928c1.347,1.051,2.797,1.899,4.326,2.535
					c0,0-26.271,71.152-27.111,74.232c-0.783,2.877,0.041,5.972,2.151,8.082c1.021,1.02,2.298,1.76,3.699,2.141
					c2.147,0.583,4.393,0.298,6.321-0.808c1.934-1.106,3.316-2.897,3.902-5.044c0.834-3.075,14.711-77.477,14.711-77.477
					c0.799,0.156,1.609,0.243,2.42,0.296c-2.463,21.898-6.127,54.69-6.127,56.334c0.001,4.593,3.733,8.331,8.325,8.331
					c4.592,0,8.327-3.736,8.327-8.328c-0.002-1.646-3.687-34.66-6.154-56.561c0.359-0.06,0.723-0.104,1.078-0.181
					c0,0,22.88,69.127,23.919,71.642c0.422,1.024,1.029,1.94,1.807,2.717c2.387,2.386,5.943,3.101,9.063,1.812
					c2.057-0.847,3.662-2.443,4.516-4.495c0.857-2.056,0.859-4.318,0.014-6.376c-1.035-2.517-33.672-67.547-33.672-67.547
					c1.318-0.791,2.572-1.733,3.707-2.867c0.311-0.31,0.588-0.64,0.871-0.964c0,0,43.496,36.258,45.908,37.882
					c3.805,2.565,8.992,1.555,11.559-2.253c2.221-3.298,1.799-7.728-1.01-10.537c-0.377-0.376-0.793-0.724-1.24-1.024
					c-2.412-1.624-52.389-28.361-52.389-28.361c1.043-2.183,1.654-4.52,1.82-6.885c0,0,78.478,5.7,81.664,5.703
					c2.225,0,4.316-0.868,5.887-2.439c1.576-1.575,2.443-3.664,2.441-5.888c-0.002-2.227-0.865-4.318-2.435-5.89
					c-1.574-1.571-3.668-2.438-5.891-2.438c-3.193-0.003-81.783,7.105-81.783,7.105c-0.121-0.944-0.33-1.876-0.592-2.796
					c24.768-6.922,67.33-18.836,68.346-19.23c4.283-1.662,6.418-6.496,4.76-10.775c-1.658-4.281-6.49-6.414-10.777-4.754
					c-1.01,0.391-40.576,20.1-63.584,31.569c-0.604-1.222-1.305-2.41-2.186-3.503c0,0,36.375-28.533,38.369-30.529
					c3.248-3.246,3.25-8.529,0-11.777c-3.244-3.246-8.527-3.244-11.775,0.002c-2.004,2.006-30.664,38.543-30.664,38.543
					c-1.42-0.975-2.941-1.727-4.524-2.277c0,0,22.625-56.171,23.478-59.272c0.799-2.883-0.025-5.992-2.145-8.111
					c-1.01-1.01-2.277-1.746-3.666-2.131c-4.428-1.219-9.023,1.385-10.244,5.815c-0.855,3.103-11.043,62.825-11.043,62.825
					c-2.825-0.393-5.718-0.166-8.46,0.701c0,0-29.764-62.452-30.918-64.489c-0.373-0.656-0.832-1.258-1.361-1.787
					c-2.635-2.635-6.743-3.195-9.99-1.35c-1.934,1.094-3.326,2.881-3.924,5.023c-0.59,2.143-0.312,4.389,0.787,6.326
					c1.154,2.041,38.402,60.315,38.402,60.315c-0.235,0.211-0.479,0.414-0.704,0.639c-0.591,0.592-1.112,1.223-1.608,1.869
					c-21.541-15.092-41.356-31.213-42.283-31.752C56.059-148.045,50.954-146.689,48.65-142.717z M107.701-112.088
					c5.365-5.365,14.1-5.365,19.464,0c5.369,5.369,5.367,14.103,0.002,19.467c-5.368,5.368-14.1,5.368-19.469,0
					C102.334-97.986,102.333-106.719,107.701-112.088z"/>
				<path style="fill:#A6CE39;" d="M228.106-197.469c-2.891-1.988-6.861-1.258-8.855,1.637c-0.461,0.67-16.506,29.857-26.207,47.518
					c-1.109-0.665-2.289-1.192-3.514-1.539c0,0,6.928-32.676,7.086-34.697c0.131-1.695-0.406-3.34-1.512-4.631
					c-1.107-1.295-2.648-2.078-4.344-2.209c-1.695-0.131-3.342,0.404-4.635,1.512c-1.289,1.103-2.074,2.648-2.209,4.344
					c-0.152,2.012,0.687,35.163,0.687,35.163c-1.576,0.102-3.141,0.447-4.631,1.06c0,0-19.506-29.247-20.57-30.649
					c-1.027-1.355-2.523-2.227-4.207-2.457c-1.686-0.233-3.359,0.209-4.713,1.236c-0.102,0.078-0.201,0.154-0.297,0.236
					c-2.555,2.188-2.963,6.004-0.928,8.686c1.057,1.387,25.482,26.62,25.482,26.62c-0.881,0.965-1.613,2.021-2.189,3.148
					c0,0-52.678-24.239-54.977-25.061c-2.146-0.768-4.554-0.322-6.288,1.16c-0.838,0.719-1.478,1.65-1.852,2.693
					c-0.571,1.603-0.486,3.332,0.241,4.866c0.73,1.54,2.014,2.699,3.614,3.273c2.294,0.819,58.185,15.801,58.185,15.801
					c-0.166,0.6-0.279,1.212-0.369,1.828c-16.545-3.175-41.322-7.908-42.576-8.006c-3.501-0.271-6.571,2.352-6.843,5.852
					c-0.272,3.501,2.354,6.569,5.854,6.841c1.254,0.097,26.639-0.76,43.477-1.339c0.025,0.275,0.037,0.553,0.076,0.83
					c0,0-28.271,5.02-30.25,5.664c-0.807,0.263-1.539,0.67-2.178,1.216c-1.961,1.68-2.715,4.348-1.918,6.802
					c0.523,1.617,1.646,2.937,3.158,3.709c1.518,0.775,3.24,0.91,4.859,0.388c1.98-0.641,27.705-13.34,27.705-13.34
					c0.525,1.05,1.168,2.062,1.965,2.993c0.219,0.256,0.455,0.485,0.684,0.721c0,0-30.211,31.007-31.594,32.751
					c-2.18,2.748-1.717,6.763,1.035,8.945c2.381,1.885,5.783,1.829,8.09-0.147c0.309-0.267,0.6-0.561,0.854-0.883
					c1.381-1.744,24.725-38.253,24.725-38.253c1.6,0.921,3.344,1.527,5.137,1.793c0,0-7.258,37.165-7.447,39.594
					c-0.133,1.697,0.404,3.342,1.51,4.631c1.107,1.295,2.648,2.08,4.344,2.209c1.697,0.131,3.342-0.401,4.633-1.509
					c1.291-1.104,2.076-2.648,2.209-4.344c0.189-2.434-2.309-40.442-2.309-40.442c0.729-0.038,1.449-0.141,2.168-0.286
					c3.809,19.289,10.367,52.437,10.607,53.235c1.016,3.364,4.572,5.276,7.933,4.267c3.361-1.011,5.274-4.566,4.262-7.932
					c-0.238-0.795-12.918-32.121-20.299-50.338c0.967-0.387,1.916-0.853,2.801-1.459c0,0,13.416,22.253,14.816,23.892
					c2.283,2.667,6.309,2.982,8.979,0.697c2.666-2.281,2.977-6.308,0.695-8.977c-1.41-1.646-21.381-18.492-21.381-18.492
					c0.826-1.025,1.49-2.141,2.002-3.314c0,0,38.08,19.126,40.393,19.963c2.148,0.777,4.568,0.335,6.309-1.153
					c0.83-0.711,1.467-1.635,1.84-2.671c1.191-3.302-0.52-6.959-3.824-8.152c-2.314-0.836-43.836-10.693-43.836-10.693
					c0.469-2.13,0.467-4.348-0.033-6.489c0,0,34.953-12.33,36.574-13.091c0.521-0.245,1.01-0.559,1.443-0.933
					c2.164-1.852,2.834-4.949,1.621-7.533c-0.719-1.538-2-2.707-3.598-3.287c-1.598-0.576-3.326-0.498-4.867,0.223
					c-1.627,0.762-33.838,19.041-33.838,19.041c-0.145-0.19-0.287-0.387-0.445-0.574c-0.416-0.484-0.865-0.919-1.328-1.335
					c12.777-15.527,33.975-41.288,34.439-41.962C231.729-191.508,230.997-195.48,228.106-197.469z M193.528-142.66
					c3.771,4.407,3.254,11.064-1.152,14.835c-4.41,3.774-11.066,3.258-14.838-1.149c-3.775-4.41-3.258-11.067,1.152-14.842
					C183.099-147.587,189.755-147.07,193.528-142.66z"/>
			</g>
		</g>
	</g>
</pattern>
<g>
	<pattern  id="SVGID_1_" xlink:href="#Bugaboo" patternTransform="matrix(1 0 0 -1 -153.403 -16251.9316)">
	</pattern>
	<path style="fill:url(#SVGID_1_);stroke:#ED11B4;stroke-width:10;" d="M205.092,234.242c14.978,15.32,29.074,12.401,27.067,12.401
		c-5.16,1.603-16.228,11.293-25.03,18.896C143.853,320.196,6.22,498.322,15.846,284.824c1.457-32.295,4.038-34.302-3.124-59.395
		c-9.827-34.418-22.326-90.606,47.099-86.992C117.433,144.444,173.371,201.794,205.092,234.242z"/>
	<pattern  id="SVGID_2_" xlink:href="#Bugaboo" patternTransform="matrix(1 0 0 -1 -153.403 -16251.9316)">
	</pattern>
	<path style="fill:url(#SVGID_2_);stroke:#ED11B4;stroke-width:10;" d="M191.206,287.446c36.336-27.737,42.013-29.275,41.758-27.32
		c1.087,6.309,1.099-4.387,1.099,29.167c0,41.013,124.842,93.127,104.419,166.265c-28.312,30.867-38.53,63.051-103.891,22.947
		c-27.562-16.902-33.488-8.463-59.301-4.624c-35.401,5.269-92.741,10.354-80.131-58.01
		C108.71,359.112,162.532,309.338,191.206,287.446z"/>
	<pattern  id="SVGID_3_" xlink:href="#Bugaboo" patternTransform="matrix(1 0 0 -1 -153.403 -16251.9316)">
	</pattern>
	<path style="fill:url(#SVGID_3_);stroke:#ED11B4;stroke-width:10;" d="M251.777,288.802c3.582-24.287-5.639-37.905-4.125-36.471
		c7.225,3.546,19.906,8.185,33.19,8.22c59.798,0.19,165.064-27.648,191.161,21.027c14.149,35.541,24.258,68.194-46.568,97.589
		c-29.866,12.396-26.509,22.147-38.543,45.305c-16.511,31.753-46.043,81.162-93.997,30.838
		C255.902,412.215,238.85,364.374,251.777,288.802z"/>
	<pattern  id="SVGID_4_" xlink:href="#Bugaboo" patternTransform="matrix(1 0 0 -1 -153.403 -16251.9316)">
	</pattern>
	<path style="fill:url(#SVGID_4_);stroke:#ED11B4;stroke-width:10;" d="M276.474,255.966
		c-24.141-10.948-39.304-16.749-37.167-17.522c35.237-26.77,47.36-175.088,125.239-191.409c21.692-3.513,73.302,12.86,67.828,89.348
		c-2.307,32.245,7.915,33.613,23.215,54.76c20.988,28.995,51.923,77.535-14.567,97.843
		C388.387,302.122,318.699,275.116,276.474,255.966z"/>
	<pattern  id="SVGID_5_" xlink:href="#Bugaboo" patternTransform="matrix(1 0 0 -1 -153.403 -16251.9316)">
	</pattern>
	<path style="fill:url(#SVGID_5_);stroke:#ED11B4;stroke-width:10;" d="M210.903,221.369c19.019,11.606,28.014,21.724,27.545,19.724
		c0.487-6.86-3.739-18.55,3.072-33.132c37.003-79.211,145.689-243.806-23.208-184.322c-30.491,10.732-32.47,11.751-58.537,10.505
		c-35.753-1.714-93.311-1.062-73.952,65.704C104.604,153.974,171.958,197.604,210.903,221.369z"/>
</g>
<g>
	<g>
		<path style="fill:#ED11B4;stroke:#9212DD;stroke-width:5;" d="M282.354,225.794c14.978,15.319,29.073,12.4,27.065,12.4
			c-5.159,1.602-16.227,11.293-25.029,18.897c-63.276,54.655-200.909,232.781-191.285,19.283c1.458-32.295,4.04-34.302-3.123-59.394
			c-9.827-34.417-22.326-90.607,47.099-86.991C194.694,135.996,250.633,193.345,282.354,225.794z"/>
		<path style="fill:#ED11B4;stroke:#9212DD;stroke-width:5;" d="M268.468,278.998c36.336-27.738,42.012-29.275,41.758-27.321
			c1.087,6.31,1.1-4.387,1.1,29.167c0,41.014,124.841,93.127,104.418,166.265c-28.311,30.867-38.529,63.052-103.892,22.947
			c-27.561-16.902-33.486-8.462-59.299-4.623c-35.401,5.268-92.743,10.353-80.131-58.011
			C185.971,350.664,239.793,300.888,268.468,278.998z"/>
		<path style="fill:#ED11B4;stroke:#9212DD;stroke-width:5;" d="M329.038,280.353c3.583-24.287-5.64-37.906-4.125-36.471
			c7.224,3.546,19.905,8.184,33.191,8.22c59.796,0.19,165.063-27.649,191.16,21.026c14.15,35.541,24.258,68.194-46.569,97.589
			c-29.865,12.396-26.507,22.146-38.541,45.305c-16.512,31.754-46.044,81.163-93.997,30.839
			C333.163,403.765,316.111,355.925,329.038,280.353z"/>
		<path style="fill:#ED11B4;stroke:#9212DD;stroke-width:5;" d="M353.735,247.516c-24.141-10.948-39.304-16.749-37.167-17.522
			c35.237-26.77,47.359-175.088,125.239-191.408c21.692-3.514,73.302,12.859,67.829,89.347c-2.308,32.246,7.914,33.613,23.214,54.76
			c20.988,28.996,51.923,77.535-14.567,97.843C465.648,293.673,395.96,266.668,353.735,247.516z"/>
		<path style="fill:#ED11B4;stroke:#9212DD;stroke-width:5;" d="M288.164,212.921c19.02,11.605,28.013,21.723,27.544,19.723
			c0.488-6.86-3.738-18.55,3.072-33.132c37.003-79.211,145.688-243.806-23.208-184.322c-30.492,10.733-32.471,11.751-58.538,10.506
			c-35.753-1.714-93.312-1.062-73.953,65.703C181.865,145.525,249.219,189.157,288.164,212.921z"/>
	</g>
	<g>
		<path style="fill:#ED11B4;" d="M330.828,244.981c71.972,67.681,186.918,120.835,186.918,120.835
			c-65.805-17.4-137.948-62.063-190.376-117.638c-73.12-77.5-127.186-166.421-145.336-195.039
			C211.203,91.144,270.414,161.666,330.828,244.981z"/>
		<path style="fill:#ED11B4;" d="M293.463,243.323c-46.438-25.887-157.667,61.617-160.99,113.927
			C169.686,259.092,293.463,243.323,293.463,243.323z"/>
		<path style="fill:#ED11B4;" d="M318.29,238.732c2.749-53.095,148.735-99.375,194.814-74.399
			C410.17,143.701,318.29,238.732,318.29,238.732z"/>
		<path style="fill:#ED11B4;" d="M309.087,239.853c-58.552,43.869-172.741-3.804-204.022-45.855
			C189.741,256.052,309.087,239.853,309.087,239.853z"/>
		<path style="fill:#ED11B4;" d="M319.355,236.881c-51.378,84.391-84.693,220.391-84.693,220.391
			c3.448-67.982,37.287-160.346,80.844-223.117C376.258,146.62,452.11,75.373,476.364,51.712
			C445.199,88.094,388.409,160.581,319.355,236.881z"/>
		<path style="fill:#ED11B4;" d="M311.425,215.278c1.014,8.991,10.247,13.9,11.277,22.831c-1.03,11.37-22.653,22.162-22.748,34.529
			c-0.737,94.629,41.221,213.418,41.221,213.418c-23.193-53.975-52.53-145.693-47.722-217.301
			c0.762-11.355,20.382-22.455,21.944-32.794c-1.636-7.759-11.294-11.369-12.583-18.968c-15.276-90.129,1.267-172.06,11.726-201.507
			C303.852,57.03,302.741,138.28,311.425,215.278z"/>
		<path style="fill:#ED11B4;" d="M319.355,236.881c-98.118,11.571-225.736,69.181-225.736,69.181
			c55.651-39.188,149.236-69.49,225.506-73.894c106.38-6.129,198.353-1.215,231.934,3.298
			C503.199,233.349,422.002,244.212,319.355,236.881z"/>
		<path style="fill:#ED11B4;" d="M322.703,240.711c30.515,39.561,99.908,145.765,106.805,218.802
			c12.775-51.812-59.882-158.381-102.934-221.499c-60.047-88.019-24.893-55.523-110.587-192.955
			C261.603,138.236,286.195,204.203,322.703,240.711z"/>
	</g>
</g>
<g>
	<path style="fill:none;stroke:#A59ACA;stroke-width:2;" d="M302.935,223.337c-2.969-7.696-1.623-15.378,2.992-17.157
		c4.622-1.78,10.766,3.019,13.729,10.712c2.963,7.703,1.623,15.379-2.993,17.158C312.042,235.829,305.898,231.03,302.935,223.337z"
		/>
	<path style="fill:none;stroke:#A59ACA;stroke-width:2;" d="M332.334,235.05c-7.839,2.559-15.44,0.806-16.969-3.895
		c-1.535-4.71,3.583-10.588,11.424-13.141c7.844-2.556,15.44-0.812,16.978,3.89C345.292,226.613,340.178,232.5,332.334,235.05z"/>
	<path style="fill:none;stroke:#A59ACA;stroke-width:2;" d="M319.759,250.756c-1.693,8.066-6.996,13.784-11.836,12.767
		c-4.846-1.018-7.396-8.385-5.699-16.449c1.697-8.074,6.997-13.794,11.837-12.775C318.907,235.315,321.459,242.681,319.759,250.756z
		"/>
	
		<ellipse transform="matrix(0.9982 -0.0608 0.0608 0.9982 -12.7915 19.5862)" style="fill:none;stroke:#DDD0E6;stroke-width:2;" cx="315.464" cy="219.996" rx="8.958" ry="14.933"/>
	<path style="fill:none;stroke:#DDD0E6;stroke-width:2;" d="M330.989,240.592c-8.249,0.071-14.962-3.896-15.004-8.844
		c-0.035-4.949,6.62-9.013,14.862-9.075c8.251-0.061,14.962,3.896,15.009,8.836C345.888,236.467,339.237,240.53,330.989,240.592z"/>
	<path style="fill:none;stroke:#DDD0E6;stroke-width:2;" d="M314.255,251.756c-4.055,7.181-10.839,11.031-15.145,8.597
		c-4.314-2.435-4.516-10.226-0.461-17.405c4.059-7.18,10.837-11.031,15.145-8.597C318.104,236.785,318.314,244.576,314.255,251.756z
		"/>
	<path style="fill:none;stroke:#DDD0E6;stroke-width:2;" d="M304.6,221.619c6.964,4.418,10.443,11.403,7.791,15.573
		c-2.665,4.179-10.459,3.967-17.415-0.46c-6.955-4.436-10.44-11.403-7.788-15.573C289.85,216.98,297.644,217.183,304.6,221.619z"/>
	<path style="fill:none;stroke:#DDD0E6;stroke-width:2;" d="M312.244,253.597c-3.262-7.578-2.223-15.299,2.322-17.255
		c4.545-1.966,10.875,2.594,14.133,10.163c3.267,7.57,2.234,15.299-2.314,17.265C321.84,265.717,315.513,261.176,312.244,253.597z"
		/>
	<path style="fill:none;stroke:#A59ACA;stroke-width:2;" d="M301.451,224.939c7.971,2.107,13.401,7.711,12.129,12.492
		c-1.277,4.78-8.768,6.94-16.735,4.825c-7.971-2.125-13.401-7.721-12.132-12.501C285.99,224.974,293.48,222.814,301.451,224.939z"/>
	<path style="fill:none;stroke:#A59ACA;stroke-width:2;" d="M318.399,253.11c-5.397-6.232-6.743-13.908-3.001-17.148
		c3.739-3.246,11.149-0.815,16.547,5.418c5.4,6.233,6.749,13.918,3.01,17.158C331.21,261.769,323.802,259.352,318.399,253.11z"/>
</g>
</svg>
